<svg width="63" height="62" viewBox="0 0 63 62" fill="none" xmlns="http://www.w3.org/2000/svg">
<path opacity="0.3" d="M11.3135 39.6316C11.3135 39.6316 11.1999 45.6361 1.80669 39.8083C1.80669 39.8083 1.03051 44.13 9.90534 46.0899C9.90534 46.0899 17.9635 44.9911 18.6635 39.6316H11.3135ZM54.1817 39.6316C54.1817 39.6316 54.0681 45.6361 44.6749 39.8083C44.6749 39.8083 43.8987 44.13 52.7736 46.0899C52.7736 46.0899 60.8317 44.9911 61.5317 39.6316H54.1817Z" fill="#7D4AC7"/>
<path d="M19.3473 39.2071L19.3469 39.2037C19.3458 39.1826 19.3434 39.1615 19.3398 39.1406C19.3385 39.1332 19.3366 39.126 19.335 39.1186C19.3321 39.1039 19.3285 39.0893 19.3244 39.0749C19.322 39.0668 19.3191 39.0586 19.3163 39.0506C19.3117 39.0371 19.3066 39.0237 19.301 39.0106C19.2992 39.0067 19.2983 39.0027 19.2964 38.9987L10.4371 19.6327C10.391 19.5319 10.3162 19.4464 10.2218 19.3864C10.1275 19.3264 10.0175 19.2944 9.90517 19.2944C9.79282 19.2944 9.68286 19.3264 9.5885 19.3864C9.49414 19.4464 9.41939 19.5319 9.37323 19.6327L0.514031 38.9988C0.512281 39.0027 0.511231 39.0067 0.509597 39.0107C0.503911 39.0238 0.498773 39.0372 0.494197 39.0507C0.491514 39.0587 0.488481 39.0669 0.486147 39.075C0.482087 39.0895 0.478546 39.1041 0.475531 39.1188C0.473897 39.1261 0.472031 39.1333 0.470747 39.1407C0.467247 39.1616 0.464797 39.1826 0.463631 39.2038L0.463281 39.2072C0.462193 39.2295 0.462505 39.2518 0.464214 39.2741C0.464681 39.2813 0.465964 39.2883 0.466664 39.2956C0.468064 39.3079 0.468997 39.3203 0.471097 39.3325C0.483814 39.4049 0.797998 41.1239 2.1189 42.8496C3.3404 44.4454 5.68283 46.3477 9.90523 46.3477C14.1276 46.3477 16.4701 44.4455 17.6914 42.8496C19.0123 41.1239 19.3266 39.4049 19.3394 39.3325C19.3416 39.3203 19.3424 39.3079 19.3437 39.2956C19.3445 39.2883 19.3458 39.2813 19.3462 39.2741C19.3479 39.2517 19.3483 39.2293 19.3473 39.2071ZM9.90535 21.2668L17.8624 38.6603H1.94821L9.90535 21.2668ZM16.7597 42.1585C15.2154 44.1762 12.9092 45.1994 9.90535 45.1994C6.92125 45.1994 4.6249 44.189 3.08 42.1965C2.38828 41.3041 2.0048 40.4001 1.8067 39.8085H18.0057C17.8117 40.3894 17.4376 41.2729 16.7597 42.1585ZM62.5359 39.2741C62.5375 39.2516 62.538 39.2292 62.5368 39.2069L62.5367 39.2053C62.5356 39.1836 62.5331 39.162 62.5294 39.1406C62.5281 39.1332 62.5262 39.1258 62.5246 39.1184C62.5216 39.1039 62.5181 39.0894 62.5141 39.0751C62.5116 39.0667 62.5085 39.0584 62.5057 39.0499C62.5012 39.0368 62.4962 39.0238 62.4908 39.0111C62.489 39.007 62.4879 39.0028 62.4861 38.9988L53.6267 19.6327C53.5804 19.532 53.5057 19.4465 53.4113 19.3865C53.3169 19.3265 53.207 19.2946 53.0946 19.2946C52.9823 19.2946 52.8724 19.3265 52.778 19.3865C52.6836 19.4465 52.6089 19.532 52.5626 19.6327L43.7032 38.9988C43.7013 39.0028 43.7003 39.007 43.6985 39.0111C43.6931 39.0238 43.6881 39.0368 43.6836 39.05C43.6808 39.0584 43.6777 39.0667 43.6752 39.0751C43.671 39.0894 43.6679 39.104 43.6647 39.1185C43.6631 39.1259 43.6612 39.1332 43.6599 39.1406C43.6562 39.1623 43.6537 39.1842 43.6526 39.2061V39.2068C43.6514 39.2291 43.6519 39.2516 43.6535 39.2741C43.654 39.2812 43.6553 39.2882 43.656 39.2953C43.6574 39.3076 43.6583 39.3201 43.6604 39.3324C43.6731 39.4048 43.9874 41.1238 45.3082 42.8494C46.5298 44.4453 48.8721 46.3476 53.0945 46.3476C57.3168 46.3476 59.6594 44.4454 60.8808 42.8494C62.2017 41.1238 62.516 39.4048 62.5287 39.3324C62.5309 39.3201 62.5317 39.3077 62.5331 39.2955C62.534 39.2882 62.5354 39.2812 62.5359 39.2741ZM53.0948 21.2668L61.0518 38.6603H45.1377L53.0948 21.2668ZM59.92 42.1964C58.3751 44.189 56.0787 45.1994 53.0948 45.1994C50.1107 45.1994 47.8143 44.189 46.2695 42.1965C45.5777 41.3041 45.1943 40.4001 44.9961 39.8085H61.1933C60.9951 40.4004 60.6117 41.3043 59.92 42.1964Z" fill="#7D4AC7"/>
<path d="M31.4386 14.3921C35.1903 14.3921 38.2317 11.3991 38.2317 7.70694C38.2317 4.0148 35.1903 1.02173 31.4386 1.02173C27.6869 1.02173 24.6456 4.0148 24.6456 7.70694C24.6456 11.3991 27.6869 14.3921 31.4386 14.3921Z" fill="#7D4AC7"/>
<path d="M28.7315 15.2578H6.58302C6.58302 15.2578 4.36823 15.2578 4.36823 17.4375C4.36823 19.6171 6.58302 19.6171 6.58302 19.6171L23.1251 20.8674L24.4837 36.9119L23.1251 60.9782H28.5594L31.4387 38.5296L34.318 60.9782H39.7523L38.3932 36.9119L39.7519 20.8675L56.4171 19.6172C56.4171 19.6172 58.6319 19.6172 58.6319 17.4376C58.6319 15.2579 56.4171 15.2579 56.4171 15.2579H28.7315V15.2578Z" fill="#7D4AC7"/>
</svg>
