<svg width="60" height="54" viewBox="0 0 60 54" fill="none" xmlns="http://www.w3.org/2000/svg">
<path d="M53.5913 21.187C53.505 21.0424 53.3835 20.9228 53.2385 20.8398C53.0935 20.7568 52.9299 20.7132 52.7635 20.7132C52.5971 20.7132 52.4336 20.7568 52.2886 20.8398C52.1436 20.9228 52.022 21.0424 51.9357 21.187L46.5091 30.2795C46.4199 30.4333 46.3716 30.608 46.3688 30.7865C46.366 30.9651 46.4088 31.1413 46.4932 31.2979C46.5762 31.4531 46.6978 31.5834 46.846 31.6757C46.9941 31.768 47.1635 31.8191 47.3371 31.8239H51.5229C50.6706 37.4518 47.8712 42.5854 43.6288 46.3006C39.5372 49.8691 34.4004 51.9031 29.5353 51.9031C26.3637 51.9031 23.0459 51.0267 19.9408 49.3798C16.7134 47.6645 13.9143 45.2212 11.7576 42.2369C11.6061 42.0261 11.3786 41.8852 11.1249 41.8451C10.8713 41.805 10.6124 41.869 10.4052 42.0231C10.198 42.1771 10.0595 42.4086 10.0201 42.6666C9.98064 42.9246 10.0436 43.1879 10.195 43.3987C12.5278 46.6255 15.5551 49.267 19.0456 51.121C22.4261 52.9139 26.0535 53.8614 29.5357 53.8614C34.8563 53.8614 40.4527 51.6658 44.8899 47.7958C49.5681 43.7119 52.6225 38.0335 53.4812 31.8239H58.1902C58.3636 31.8184 58.5327 31.767 58.6806 31.6748C58.8286 31.5826 58.9504 31.4527 59.0339 31.298C59.1175 31.1433 59.16 30.9691 59.1572 30.7926C59.1544 30.6161 59.1064 30.4434 59.0179 30.2915L53.5913 21.187ZM49.0578 29.8538L52.7635 23.6447L56.4691 29.8538H49.0578ZM12.6642 23.4844C12.5811 23.3292 12.4595 23.1989 12.3113 23.1066C12.1632 23.0143 11.9938 22.9632 11.8202 22.9584H7.63452C8.48686 17.3305 11.2862 12.1969 15.5286 8.48168C19.6202 4.9132 24.757 2.87919 29.6221 2.87919C32.7937 2.87919 36.1115 3.75564 39.2167 5.40253C42.444 7.11784 45.2431 9.56106 47.3998 12.5454C47.4748 12.6498 47.5693 12.7381 47.6779 12.8053C47.7864 12.8725 47.9069 12.9173 48.0325 12.9372C48.1581 12.9571 48.2863 12.9516 48.4097 12.921C48.5332 12.8905 48.6496 12.8355 48.7522 12.7592C48.8548 12.6829 48.9416 12.5868 49.0077 12.4764C49.0738 12.366 49.1179 12.2435 49.1374 12.1157C49.1569 11.988 49.1515 11.8576 49.1215 11.732C49.0914 11.6064 49.0374 11.488 48.9624 11.3837C46.6297 8.1568 43.6023 5.51535 40.1118 3.66132C36.7313 1.8684 33.104 0.920898 29.6217 0.920898C24.3011 0.920898 18.7047 3.11646 14.2675 6.98649C9.58925 11.0704 6.53483 16.7488 5.67612 22.9584H0.967158C0.793702 22.9639 0.624649 23.0153 0.476678 23.1075C0.328707 23.1997 0.20693 23.3296 0.123361 23.4843C0.0397925 23.639 -0.00268099 23.8132 0.000131091 23.9897C0.00294317 24.1662 0.0509436 24.3389 0.139397 24.4908L5.56572 33.5892C5.65154 33.7343 5.7727 33.8544 5.9175 33.938C6.06229 34.0215 6.22582 34.0656 6.39228 34.0661C6.55874 34.0665 6.7225 34.0233 6.86774 33.9406C7.01297 33.8578 7.13477 33.7384 7.22136 33.5938L12.6479 24.49C12.7371 24.3386 12.7856 24.166 12.7884 23.9894C12.7913 23.8129 12.7484 23.6388 12.6642 23.4844ZM6.3936 31.1376L2.68817 24.9285H10.0995L6.3936 31.1376Z" fill="#7D4AC7"/>
<path d="M44.4863 28.3507L40.7105 18.0546C40.6844 17.7973 40.5597 17.5608 40.3634 17.3963C40.3584 17.3915 40.3529 17.3873 40.3478 17.3827C40.3368 17.3726 40.3254 17.363 40.3141 17.3534C40.3011 17.3424 40.288 17.3317 40.2743 17.3215C40.2622 17.3126 40.2501 17.3043 40.238 17.2961C40.2241 17.2866 40.2101 17.2773 40.1957 17.2685C40.1813 17.2598 40.1684 17.2526 40.1545 17.2451C40.1405 17.2376 40.1273 17.2302 40.1132 17.2235C40.097 17.2156 40.0801 17.2086 40.0633 17.2015C40.0541 17.1977 40.0454 17.193 40.0359 17.1892C40.0324 17.188 40.0289 17.1871 40.0255 17.1859C40.0077 17.1794 39.9892 17.1736 39.9716 17.1685C39.9586 17.1646 39.9458 17.1603 39.9327 17.157C39.9163 17.1528 39.8999 17.1497 39.8833 17.1465C39.8667 17.1433 39.8534 17.14 39.8384 17.1376C39.8234 17.1353 39.8097 17.1345 39.7954 17.1331C39.7781 17.1312 39.7608 17.129 39.7436 17.1283C39.7315 17.1275 39.7185 17.1283 39.706 17.1283C39.6868 17.1283 39.6678 17.1277 39.6487 17.1283C39.6374 17.1283 39.6259 17.1305 39.6146 17.1315C39.5943 17.1333 39.5741 17.1349 39.554 17.138C39.5435 17.1396 39.5331 17.1422 39.5226 17.1442C39.5016 17.1481 39.4807 17.1522 39.46 17.1575C39.4502 17.16 39.4404 17.1634 39.4306 17.1662L39.4149 17.1709H31.9143C31.7713 16.5473 31.4251 15.9913 30.932 15.5932C30.4389 15.1952 29.8279 14.9785 29.1984 14.9785C28.5689 14.9785 27.9579 15.1952 27.4649 15.5932C26.9718 15.9913 26.6256 16.5473 26.4826 17.1709H18.9806L18.9736 17.1688C18.9602 17.1647 18.9471 17.1603 18.9336 17.1565C18.9178 17.1524 18.9015 17.1494 18.8852 17.1462C18.8689 17.143 18.8546 17.1396 18.8392 17.1373C18.8238 17.1349 18.8111 17.1342 18.7971 17.1327C18.7795 17.1309 18.762 17.1286 18.7445 17.1279C18.7324 17.1272 18.7195 17.1279 18.7069 17.1279C18.6878 17.1279 18.6688 17.1273 18.6497 17.1279C18.6376 17.1279 18.6265 17.1301 18.615 17.1312C18.595 17.1329 18.5751 17.1345 18.5545 17.1376C18.5438 17.1394 18.5331 17.1419 18.5223 17.1439C18.5016 17.1478 18.4809 17.1518 18.4604 17.1571C18.4504 17.1597 18.4404 17.163 18.4305 17.1659C18.4093 17.1721 18.3884 17.1783 18.3678 17.1861C18.365 17.1873 18.3622 17.1879 18.3593 17.1889C18.3516 17.1918 18.3444 17.1956 18.3368 17.1988C18.3177 17.2066 18.2987 17.2146 18.2802 17.2235C18.2681 17.2294 18.256 17.2358 18.2439 17.2422C18.2281 17.2507 18.2125 17.2593 18.1972 17.2686C18.1845 17.2765 18.1721 17.2848 18.1597 17.2933C18.1474 17.3018 18.1325 17.312 18.1194 17.322C18.1063 17.3319 18.0952 17.3409 18.0831 17.3506C18.071 17.3604 18.0579 17.3719 18.0457 17.3832C18.0335 17.3944 18.0244 17.4036 18.014 17.4142C18.0036 17.4248 17.9898 17.4388 17.9786 17.4511C17.9693 17.4617 17.9603 17.4725 17.9514 17.4835C17.9403 17.4972 17.9292 17.5111 17.9188 17.5255C17.9105 17.5369 17.9027 17.5488 17.8946 17.5606C17.8851 17.5751 17.8756 17.5895 17.8668 17.6047C17.8579 17.6198 17.8515 17.632 17.8441 17.6459C17.8368 17.6598 17.8294 17.6737 17.8226 17.6883C17.8148 17.705 17.8078 17.7221 17.801 17.7394C17.7972 17.7487 17.7927 17.7575 17.7889 17.767L13.9079 28.3495C13.7537 28.4338 13.6249 28.559 13.5351 28.7118C13.4454 28.8646 13.398 29.0392 13.398 29.2172C13.398 32.1176 15.5769 34.1432 18.6962 34.1432C21.8342 34.1432 24.0256 32.1176 24.0256 29.2172C24.0256 29.032 23.9741 28.8505 23.8772 28.6937C23.7803 28.5368 23.6418 28.411 23.4777 28.3307L20.1095 19.1412H26.7332C27.0718 19.7502 27.6065 20.2217 28.2471 20.4765V33.3014H27.5879C26.33 33.3014 25.2032 34.2589 24.8082 35.5317C24.5852 35.5677 24.3822 35.6836 24.2358 35.8585C24.0895 36.0334 24.0095 36.2558 24.0102 36.4855V38.8184C24.0067 39.0809 24.1052 39.3341 24.2843 39.5231C24.4634 39.712 24.7086 39.8214 24.9665 39.8274H33.43C33.6915 39.8229 33.9412 39.7151 34.1261 39.5268C34.311 39.3385 34.4166 39.0845 34.4208 38.8184V36.4855C34.4178 36.2541 34.3343 36.0313 34.1851 35.8567C34.0358 35.682 33.8306 35.5669 33.6057 35.5317C33.2109 34.2589 32.0669 33.3014 30.8089 33.3014H30.1839V20.4765C30.815 20.2203 31.3383 19.748 31.6637 19.1412H38.2871L34.9171 28.3322C34.753 28.4125 34.6146 28.5383 34.5176 28.6952C34.4207 28.852 34.3693 29.0335 34.3692 29.2187C34.3692 32.1191 36.5482 34.1447 39.6675 34.1447C42.8053 34.1447 44.9967 32.1191 44.9967 29.2187C44.9967 29.0406 44.9493 28.8659 44.8594 28.713C44.7695 28.5602 44.6406 28.435 44.4863 28.3507ZM32.4839 37.8573H25.9471V37.4879H32.4839V37.8573ZM31.3719 35.5178H27.0244C27.1836 35.38 27.3798 35.2942 27.5876 35.2715H30.8086C31.0164 35.2942 31.2127 35.38 31.3719 35.5178ZM42.3757 28.253H37.0199L39.6987 20.9503L42.3757 28.253ZM29.1983 16.9487C29.3669 16.9487 29.5317 16.9996 29.6719 17.0949C29.8121 17.1902 29.9214 17.3256 29.9859 17.484C30.0504 17.6425 30.0673 17.8168 30.0344 17.985C30.0015 18.1532 29.9203 18.3077 29.8011 18.429C29.6819 18.5502 29.53 18.6328 29.3646 18.6663C29.1993 18.6997 29.0279 18.6826 28.8721 18.6169C28.7163 18.5513 28.5832 18.4402 28.4895 18.2976C28.3959 18.155 28.3459 17.9873 28.3459 17.8158C28.3461 17.586 28.436 17.3656 28.5959 17.203C28.7557 17.0405 28.9723 16.949 29.1983 16.9487ZM18.6987 20.9505L21.3768 28.253H16.0207L18.6987 20.9505ZM18.6987 32.1942C17.4091 32.1942 15.9395 31.5778 15.4813 30.2233H21.9314C21.5785 31.2081 20.6086 32.1939 18.6987 32.1939V32.1942ZM39.667 32.1942C38.3774 32.1942 36.9078 31.5778 36.4496 30.2233H42.8996C42.5467 31.2081 41.5767 32.1939 39.667 32.1939V32.1942Z" fill="#7D4AC7"/>
</svg>
