<svg width="60" height="60" viewBox="0 0 60 60" fill="none" xmlns="http://www.w3.org/2000/svg">
<path d="M33.0046 35.6255H17.8393C17.5903 35.6255 17.3515 35.7181 17.1754 35.8829C16.9993 36.0478 16.9004 36.2713 16.9004 36.5044C16.9004 36.7375 16.9993 36.9611 17.1754 37.1259C17.3515 37.2907 17.5903 37.3833 17.8393 37.3833H33.0046C33.2536 37.3833 33.4925 37.2907 33.6685 37.1259C33.8446 36.9611 33.9435 36.7375 33.9435 36.5044C33.9435 36.2713 33.8446 36.0478 33.6685 35.8829C33.4925 35.7181 33.2536 35.6255 33.0046 35.6255ZM16.9004 24.2C16.9004 24.4331 16.9993 24.6566 17.1754 24.8215C17.3515 24.9863 17.5903 25.0789 17.8393 25.0789H41.1243C41.3734 25.0789 41.6122 24.9863 41.7883 24.8215C41.9643 24.6566 42.0633 24.4331 42.0633 24.2C42.0633 23.9669 41.9643 23.7434 41.7883 23.5785C41.6122 23.4137 41.3734 23.3211 41.1243 23.3211H17.8393C17.5903 23.3211 17.3515 23.4137 17.1754 23.5785C16.9993 23.7434 16.9004 23.9669 16.9004 24.2ZM22.3323 9.47806H24.3929V16.999C24.3929 17.3505 24.8424 17.5369 25.3043 17.5369C25.7662 17.5369 26.2157 17.3529 26.2157 16.999V9.47806H28.2625C28.6268 9.47806 28.8371 9.11127 28.8371 8.70347C28.8371 8.33668 28.6556 7.94294 28.2625 7.94294H22.3323C21.9392 7.94294 21.7577 8.33668 21.7577 8.70347C21.7577 9.12416 21.968 9.47806 22.3323 9.47806ZM33.6143 26.8367H17.8406C17.5916 26.8367 17.3527 26.9293 17.1767 27.0941C17.0006 27.2589 16.9017 27.4825 16.9017 27.7155C16.9017 27.9486 17.0006 28.1722 17.1767 28.337C17.3527 28.5018 17.5916 28.5944 17.8406 28.5944H33.6143C33.8633 28.5944 34.1021 28.5018 34.2782 28.337C34.4543 28.1722 34.5532 27.9486 34.5532 27.7155C34.5532 27.4825 34.4543 27.2589 34.2782 27.0941C34.1021 26.9293 33.8633 26.8367 33.6143 26.8367ZM17.8406 40.8989H27.9808C28.2298 40.8989 28.4687 40.8063 28.6447 40.6414C28.8208 40.4766 28.9197 40.2531 28.9197 40.02C28.9197 39.7869 28.8208 39.5633 28.6447 39.3985C28.4687 39.2337 28.2298 39.1411 27.9808 39.1411H17.8406C17.5916 39.1411 17.3527 39.2337 17.1767 39.3985C17.0006 39.5633 16.9017 39.7869 16.9017 40.02C16.9017 40.2531 17.0006 40.4766 17.1767 40.6414C17.3527 40.8063 17.5916 40.8989 17.8406 40.8989ZM42.2761 45.7234C42.9274 45.723 43.5585 45.5112 44.0617 45.1241C44.565 44.737 44.9093 44.1986 45.036 43.6005C45.1627 43.0024 45.0639 42.3817 44.7566 41.8442C44.4492 41.3066 43.9522 40.8855 43.3503 40.6524C42.7484 40.4194 42.0788 40.389 41.4556 40.5663C40.8324 40.7436 40.2941 41.1176 39.9325 41.6248C39.5709 42.1319 39.4083 42.7407 39.4725 43.3474C39.5366 43.9542 39.8235 44.5213 40.2843 44.9523C40.5455 45.1972 40.8558 45.3914 41.1974 45.5237C41.539 45.656 41.9051 45.7239 42.2748 45.7234H42.2761ZM41.6126 42.4668C41.766 42.3237 41.9676 42.2348 42.1832 42.2152C42.3987 42.1956 42.6149 42.2466 42.7948 42.3595C42.9747 42.4723 43.1073 42.64 43.1699 42.8341C43.2326 43.0281 43.2215 43.2365 43.1384 43.4237C43.0554 43.6109 42.9056 43.7654 42.7146 43.8609C42.5235 43.9564 42.303 43.9869 42.0906 43.9473C41.8783 43.9077 41.6871 43.8004 41.5497 43.6437C41.4123 43.487 41.3372 43.2906 41.3372 43.0879C41.3366 42.9725 41.3606 42.8582 41.4077 42.7516C41.4547 42.645 41.524 42.5481 41.6113 42.4668H41.6126ZM17.0607 16.1189C15.6298 16.1189 15.2517 15.1088 14.6821 15.1088C14.2464 15.1088 13.8821 15.6596 13.8821 16.0275C13.8821 16.7881 15.2842 17.6552 17.1207 17.6552C19.0562 17.6552 20.4583 16.6838 20.4583 14.8065C20.4583 11.4081 15.9515 11.9718 15.9515 10.3441C15.9515 9.71477 16.5261 9.33392 17.5351 9.33392C18.7131 9.33392 19.0374 9.83196 19.4705 9.83196C19.9713 9.83196 20.1991 9.22845 20.1991 8.92729C20.1991 8.06129 18.3626 7.87262 17.5351 7.87262C15.9227 7.87262 14.1287 8.54175 14.1287 10.4976C14.1287 13.6077 18.6355 13.0042 18.6355 14.9729C18.6305 15.765 17.9019 16.1189 17.0607 16.1189ZM17.8393 49.6877H29.249C29.498 49.6877 29.7368 49.5951 29.9129 49.4303C30.089 49.2655 30.1879 49.0419 30.1879 48.8088C30.1879 48.5757 30.089 48.3522 29.9129 48.1874C29.7368 48.0225 29.498 47.9299 29.249 47.9299H17.8393C17.5903 47.9299 17.3515 48.0225 17.1754 48.1874C16.9993 48.3522 16.9004 48.5757 16.9004 48.8088C16.9004 49.0419 16.9993 49.2655 17.1754 49.4303C17.3515 49.5951 17.5903 49.6877 17.8393 49.6877ZM30.0001 51.4455H17.8393C17.5903 51.4455 17.3515 51.5381 17.1754 51.7029C16.9993 51.8677 16.9004 52.0913 16.9004 52.3244C16.9004 52.5575 16.9993 52.781 17.1754 52.9459C17.3515 53.1107 17.5903 53.2033 17.8393 53.2033H30.0001C30.2491 53.2033 30.4879 53.1107 30.664 52.9459C30.8401 52.781 30.939 52.5575 30.939 52.3244C30.939 52.0913 30.8401 51.8677 30.664 51.7029C30.4879 51.5381 30.2491 51.4455 30.0001 51.4455ZM12.2059 33.8678H8.45021C7.70337 33.8684 6.9873 34.1464 6.45921 34.6407C5.93111 35.135 5.63413 35.8053 5.63347 36.5044V40.02C5.63413 40.7191 5.93111 41.3893 6.45921 41.8837C6.9873 42.378 7.70337 42.656 8.45021 42.6566H12.2059C12.9526 42.6557 13.6685 42.3776 14.1965 41.8833C14.7245 41.3891 15.0216 40.719 15.0226 40.02V36.5044C15.0216 35.8054 14.7245 35.1353 14.1965 34.641C13.6685 34.1468 12.9526 33.8687 12.2059 33.8678ZM13.1448 40.02C13.1444 40.253 13.0454 40.4763 12.8694 40.6411C12.6934 40.8058 12.4548 40.8985 12.2059 40.8989H8.45021C8.20119 40.8989 7.96238 40.8063 7.7863 40.6414C7.61022 40.4766 7.5113 40.2531 7.5113 40.02V36.5044C7.5113 36.2713 7.61022 36.0478 7.7863 35.8829C7.96238 35.7181 8.20119 35.6255 8.45021 35.6255H12.2059C12.4548 35.6258 12.6934 35.7185 12.8694 35.8833C13.0454 36.048 13.1444 36.2714 13.1448 36.5044V40.02ZM12.2059 21.5633H8.45021C7.70337 21.564 6.9873 21.8419 6.45921 22.3363C5.93111 22.8306 5.63413 23.5009 5.63347 24.2V27.7155C5.63413 28.4146 5.93111 29.0849 6.45921 29.5793C6.9873 30.0736 7.70337 30.3516 8.45021 30.3522H12.2059C12.9526 30.3513 13.6685 30.0732 14.1965 29.5789C14.7245 29.0847 15.0216 28.4145 15.0226 27.7155V24.2C15.0216 23.501 14.7245 22.8309 14.1965 22.3366C13.6685 21.8424 12.9526 21.5643 12.2059 21.5633ZM13.1448 27.7155C13.1444 27.9485 13.0454 28.1719 12.8694 28.3367C12.6934 28.5014 12.4548 28.5941 12.2059 28.5944H8.45021C8.20119 28.5944 7.96238 28.5018 7.7863 28.337C7.61022 28.1722 7.5113 27.9486 7.5113 27.7155V24.2C7.5113 23.9669 7.61022 23.7434 7.7863 23.5785C7.96238 23.4137 8.20119 23.3211 8.45021 23.3211H12.2059C12.4548 23.3214 12.6934 23.4141 12.8694 23.5789C13.0454 23.7436 13.1444 23.967 13.1448 24.2V27.7155ZM52.2423 41.2153C52.1552 41.1336 52.0518 41.0689 51.938 41.0247C51.8241 40.9805 51.7021 40.9577 51.5788 40.9577C51.4556 40.9577 51.3335 40.9805 51.2197 41.0247C51.1058 41.0689 51.0024 41.1336 50.9153 41.2153L40.2743 51.176C40.1821 51.2564 40.1081 51.3535 40.0568 51.4613C40.0054 51.5691 39.9779 51.6855 39.9756 51.8035C39.9734 51.9215 39.9966 52.0387 40.0438 52.1481C40.091 52.2576 40.1613 52.357 40.2505 52.4404C40.3396 52.5239 40.4458 52.5897 40.5628 52.6339C40.6797 52.6781 40.8049 52.6998 40.931 52.6977C41.057 52.6956 41.1814 52.6698 41.2965 52.6218C41.4117 52.5737 41.5154 52.5045 41.6013 52.4181L52.2423 42.4574C52.3295 42.3759 52.3987 42.2791 52.4459 42.1725C52.4931 42.0659 52.5174 41.9517 52.5174 41.8363C52.5174 41.721 52.4931 41.6067 52.4459 41.5002C52.3987 41.3936 52.3295 41.2968 52.2423 41.2153ZM59.4381 45.9554C59.705 45.5654 59.8821 45.1277 59.9579 44.67C60.0338 44.2124 60.0068 43.745 59.8788 43.2976C59.7507 42.8503 59.5243 42.4329 59.2141 42.0721C58.904 41.7114 58.5168 41.4151 58.0773 41.2024C57.7914 41.0647 57.5536 40.8532 57.3921 40.593C57.2306 40.3328 57.1521 40.0347 57.166 39.734C57.1892 39.2714 57.1089 38.8093 56.9303 38.3773C56.7518 37.9454 56.4788 37.5531 56.1289 37.2256C55.779 36.8981 55.36 36.6425 54.8985 36.4754C54.437 36.3082 53.9434 36.2331 53.4491 36.2548C53.1286 36.2684 52.8105 36.1959 52.5325 36.0458C52.2546 35.8957 52.0283 35.6742 51.8805 35.4076C51.5492 34.8094 51.0316 34.3194 50.3963 34.0026C49.761 33.6858 49.0379 33.5571 48.3227 33.6334V12.0128C48.3227 11.9835 48.3227 11.9542 48.3227 11.9249C48.3227 11.8956 48.3164 11.8827 48.3127 11.8616V11.8393C48.3127 11.8147 48.3001 11.7889 48.2926 11.7643C48.2925 11.7616 48.2925 11.7589 48.2926 11.7561C48.2851 11.7315 48.2751 11.7069 48.2651 11.6823V11.6764C48.2551 11.6533 48.2438 11.6306 48.2313 11.6085C48.2318 11.605 48.2318 11.6014 48.2313 11.5979C48.22 11.578 48.2075 11.5593 48.195 11.5405L48.1837 11.5241C48.1712 11.5065 48.1574 11.4901 48.1437 11.4737C48.139 11.4672 48.134 11.4609 48.1286 11.455C48.1137 11.4378 48.0979 11.4213 48.0811 11.4058L48.0673 11.3917L36.1744 0.25912L36.1343 0.24623L36.0818 0.201699L36.0617 0.186465L36.0092 0.150138L35.9916 0.139591C35.9716 0.127873 35.9516 0.116154 35.9303 0.105608L35.9178 0.0997485C35.8952 0.0892019 35.8714 0.0774834 35.8464 0.0681086H35.8401C35.8139 0.0587338 35.7876 0.049359 35.76 0.0423279H35.7525C35.725 0.0352968 35.6987 0.0282657 35.6711 0.0235783H35.6486L35.5848 0.0013132C35.5535 -0.000437735 35.5221 -0.000437735 35.4909 0.0013132L4.69456 0.0013132C3.44989 0.00255399 2.25658 0.465936 1.37647 1.28978C0.496355 2.11363 0.00132553 3.23065 0 4.39575V55.6056C0.00132553 56.7707 0.496355 57.8877 1.37647 58.7115C2.25658 59.5354 3.44989 59.9988 4.69456 60H43.6281C43.8244 59.9998 44.0158 59.942 44.1752 59.8348C44.4646 59.7481 44.7407 59.6263 44.9964 59.4727C45.2671 59.3113 45.5813 59.2256 45.9022 59.2256C46.223 59.2256 46.5372 59.3113 46.8079 59.4727C47.2243 59.7227 47.692 59.8886 48.1808 59.9598C48.6697 60.031 49.1691 60.0059 49.647 59.8862C50.1249 59.7664 50.5709 59.5545 50.9563 59.2642C51.3418 58.9739 51.6583 58.6114 51.8855 58.2C52.0335 57.9335 52.2598 57.712 52.5377 57.5617C52.8155 57.4114 53.1335 57.3385 53.4541 57.3516C53.948 57.3727 54.4411 57.297 54.9019 57.1296C55.3628 56.9621 55.7813 56.7065 56.1306 56.3791C56.4799 56.0516 56.7524 55.6596 56.9307 55.2279C57.109 54.7963 57.1891 54.3346 57.166 53.8724C57.1518 53.5722 57.2296 53.2745 57.3902 53.0144C57.5508 52.7543 57.7875 52.5425 58.0723 52.4041C58.5118 52.1913 58.899 51.8951 59.2091 51.5343C59.5193 51.1735 59.7457 50.7561 59.8738 50.3088C60.0018 49.8615 60.0288 49.394 59.9529 48.9364C59.877 48.4788 59.7 48.041 59.4331 47.651C59.2609 47.3974 59.1699 47.103 59.1708 46.8025C59.1717 46.502 59.2645 46.2081 59.4381 45.9554ZM36.4298 3.00242L45.1166 11.1339H39.2465C38.4997 11.1333 37.7836 10.8553 37.2555 10.3609C36.7274 9.8666 36.4304 9.19632 36.4298 8.49722V3.00242ZM4.69456 58.2422C3.94772 58.2416 3.23166 57.9636 2.70356 57.4693C2.17546 56.9749 1.87849 56.3047 1.87782 55.6056V4.39575C1.87849 3.69665 2.17546 3.02637 2.70356 2.53203C3.23166 2.0377 3.94772 1.75971 4.69456 1.75909H34.552V8.49722C34.5533 9.66232 35.0483 10.7793 35.9284 11.6032C36.8085 12.427 38.0019 12.8904 39.2465 12.8917H46.4448V34.2967C46.2058 34.3727 45.9515 34.3976 45.7008 34.3694C45.4501 34.3412 45.2094 34.2607 44.9964 34.1338C44.5799 33.884 44.1123 33.7183 43.6236 33.6473C43.1348 33.5762 42.6355 33.6015 42.1577 33.7214C41.68 33.8413 41.2342 34.0532 40.8489 34.3435C40.4635 34.6338 40.1472 34.9963 39.92 35.4076C39.7717 35.6738 39.5454 35.895 39.2675 36.045C38.9897 36.1951 38.6719 36.2679 38.3514 36.2548C37.8571 36.2331 37.3633 36.3082 36.9017 36.4754C36.4401 36.6425 36.0209 36.898 35.6708 37.2255C35.3208 37.5529 35.0476 37.9452 34.8687 38.3772C34.6898 38.8091 34.6092 39.2713 34.6321 39.734C34.6468 40.0341 34.5694 40.3319 34.409 40.5921C34.2486 40.8523 34.0119 41.0641 33.727 41.2024C33.2875 41.4151 32.9003 41.7114 32.5902 42.0721C32.28 42.4329 32.0536 42.8503 31.9255 43.2976C31.7975 43.745 31.7705 44.2124 31.8464 44.67C31.9223 45.1277 32.0993 45.5654 32.3662 45.9554C32.5391 46.2085 32.631 46.5027 32.631 46.8032C32.631 47.1037 32.5391 47.3979 32.3662 47.651C32.0993 48.041 31.9223 48.4788 31.8464 48.9364C31.7705 49.394 31.7975 49.8615 31.9255 50.3088C32.0536 50.7561 32.28 51.1735 32.5902 51.5343C32.9003 51.8951 33.2875 52.1913 33.727 52.4041C34.0118 52.5424 34.2484 52.7542 34.4088 53.0144C34.5692 53.2746 34.6466 53.5723 34.6321 53.8724C34.6093 54.3351 34.6898 54.7971 34.8686 55.229C35.0474 55.6609 35.3205 56.0531 35.6704 56.3805C36.0204 56.708 36.4394 56.9635 36.9009 57.1307C37.3623 57.2979 37.8559 57.3731 38.3502 57.3516C38.6708 57.3384 38.9888 57.4112 39.2668 57.5615C39.5447 57.7118 39.7709 57.9334 39.9188 58.2C39.9263 58.2141 39.9351 58.2282 39.9438 58.2422H4.69456ZM58.0648 49.8541C58.0053 50.0656 57.8989 50.263 57.7524 50.4335C57.606 50.6039 57.4228 50.7435 57.2148 50.8432C56.6112 51.1364 56.1099 51.5852 55.7698 52.1364C55.4298 52.6877 55.2653 53.3185 55.2957 53.9544C55.3063 54.1725 55.2683 54.3903 55.184 54.5939C55.0997 54.7975 54.971 54.9824 54.8061 55.1367C54.6412 55.2911 54.4436 55.4116 54.2262 55.4905C54.0087 55.5694 53.776 55.605 53.543 55.595C52.8637 55.5669 52.19 55.721 51.6011 56.0393C51.0123 56.3575 50.5328 56.8267 50.2193 57.3915C50.112 57.5855 49.9626 57.7565 49.7807 57.8935C49.5988 58.0305 49.3884 58.1305 49.163 58.187C48.9375 58.2436 48.7019 58.2555 48.4712 58.2221C48.2405 58.1886 48.0198 58.1104 47.8232 57.9926C47.25 57.65 46.5841 57.4679 45.904 57.4679C45.2239 57.4679 44.558 57.65 43.9849 57.9926C43.7883 58.1104 43.5676 58.1886 43.3369 58.2221C43.1062 58.2555 42.8706 58.2436 42.6451 58.187C42.4196 58.1305 42.2092 58.0305 42.0273 57.8935C41.8455 57.7565 41.6961 57.5855 41.5888 57.3915C41.2884 56.8496 40.8349 56.3953 40.2778 56.0779C39.7207 55.7606 39.0812 55.5923 38.429 55.5915C38.374 55.5915 38.3201 55.5915 38.265 55.5915C38.032 55.6015 37.7994 55.5659 37.5819 55.487C37.3644 55.4081 37.1669 55.2876 37.002 55.1332C36.8371 54.9788 36.7083 54.794 36.624 54.5904C36.5397 54.3868 36.5017 54.169 36.5124 53.9509C36.5425 53.315 36.3778 52.6844 36.0378 52.1331C35.6978 51.5819 35.1966 51.1332 34.5933 50.8396C34.3859 50.7391 34.2032 50.5992 34.0569 50.4288C33.9105 50.2584 33.8037 50.0614 33.7433 49.8502C33.6829 49.6391 33.6701 49.4184 33.7059 49.2024C33.7417 48.9864 33.8252 48.7797 33.9511 48.5956C34.3172 48.0593 34.5117 47.4361 34.5117 46.7997C34.5117 46.1633 34.3172 45.5401 33.9511 45.0038C33.825 44.8199 33.7414 44.6133 33.7055 44.3973C33.6696 44.1813 33.6823 43.9607 33.7428 43.7496C33.8032 43.5384 33.9101 43.3415 34.0565 43.1712C34.203 43.001 34.3858 42.8612 34.5933 42.7609C35.1956 42.4673 35.6958 42.019 36.0354 41.4685C36.3749 40.918 36.5395 40.2882 36.5099 39.6532C36.4994 39.4351 36.5376 39.2174 36.6219 39.0139C36.7063 38.8104 36.835 38.6256 36.9999 38.4713C37.1648 38.3169 37.3622 38.1964 37.5796 38.1174C37.797 38.0385 38.0296 38.0028 38.2625 38.0126C38.9427 38.041 39.6172 37.8864 40.2065 37.5673C40.7957 37.2481 41.275 36.7776 41.5875 36.2115C41.6946 36.0171 41.8438 35.8459 42.0256 35.7087C42.2075 35.5715 42.4179 35.4714 42.6435 35.4148C42.8691 35.3582 43.1049 35.3463 43.3357 35.38C43.5664 35.4137 43.7872 35.4921 43.9836 35.6103C44.5242 35.9331 45.1478 36.1136 45.7887 36.1325C46.4296 36.1515 47.0641 36.0083 47.6254 35.7181C47.776 35.6807 47.9141 35.6086 48.0272 35.5083C48.4183 35.3403 48.8635 35.3196 49.2704 35.4505C49.6774 35.5814 50.0149 35.8539 50.213 36.2115C50.5266 36.7761 51.0061 37.2451 51.595 37.5632C52.1838 37.8812 52.8576 38.0351 53.5368 38.0067C53.7697 37.9969 54.0023 38.0326 54.2197 38.1116C54.4371 38.1906 54.6345 38.3111 54.7994 38.4654C54.9643 38.6197 55.093 38.8046 55.1774 39.0081C55.2617 39.2115 55.2999 39.4293 55.2894 39.6473C55.259 40.2832 55.4235 40.914 55.7636 41.4653C56.1036 42.0166 56.605 42.4653 57.2085 42.7586C57.416 42.8589 57.5988 42.9986 57.7453 43.1689C57.8917 43.3391 57.9986 43.5361 58.059 43.7472C58.1195 43.9583 58.1322 44.179 58.0963 44.3949C58.0605 44.6109 57.9768 44.8175 57.8507 45.0015C57.4847 45.538 57.2902 46.1613 57.2902 46.7979C57.2902 47.4345 57.4847 48.0579 57.8507 48.5944C57.9798 48.7782 58.0656 48.9855 58.1025 49.2027C58.1394 49.4199 58.1266 49.6419 58.0648 49.8541ZM8.91466 17.6154C10.7649 17.6154 12.2084 16.8021 12.2084 14.6096V13.0475C12.2118 12.9754 12.1994 12.9034 12.1719 12.836C12.1444 12.7686 12.1025 12.7071 12.0486 12.6555C11.9947 12.6039 11.9301 12.5632 11.8588 12.5358C11.7874 12.5085 11.7108 12.4952 11.6337 12.4967H9.25517C8.89087 12.4967 8.69432 12.8378 8.69432 13.1659C8.69432 13.494 8.89087 13.835 9.25517 13.835H10.3906V14.6096C10.3906 15.6338 9.82978 16.1189 8.91966 16.1189C8.00954 16.1189 7.46122 15.6338 7.46122 14.6096V10.9487C7.46122 9.92453 7.99327 9.43939 8.93343 9.43939C10.1252 9.43939 10.3493 10.1214 10.3906 10.7378C10.4056 11.1444 10.8113 11.2757 11.302 11.2757C11.9054 11.2757 12.2134 11.1186 12.2134 10.4624C12.2134 8.88745 10.7975 7.94294 8.86333 7.94294C7.0819 7.94294 5.63848 8.7562 5.63848 10.9487V14.6096C5.63347 16.8021 7.06312 17.6154 8.91466 17.6154ZM48.2501 48.6811C47.8561 49.0498 47.5879 49.5197 47.4792 50.0311C47.3705 50.5426 47.4263 51.0727 47.6395 51.5545C47.8527 52.0363 48.2137 52.4481 48.6769 52.7378C49.1401 53.0275 49.6847 53.1822 50.2418 53.1822C50.7989 53.1822 51.3435 53.0275 51.8067 52.7378C52.2699 52.4481 52.6309 52.0363 52.8441 51.5545C53.0573 51.0727 53.1131 50.5426 53.0044 50.0311C52.8957 49.5197 52.6275 49.0498 52.2335 48.6811C51.7048 48.1875 50.9886 47.9103 50.2418 47.9103C49.4951 47.9103 48.7788 48.1875 48.2501 48.6811ZM50.9066 51.1666C50.7532 51.3097 50.5515 51.3986 50.336 51.4182C50.1204 51.4377 49.9043 51.3868 49.7244 51.2739C49.5444 51.1611 49.4119 50.9934 49.3492 50.7993C49.2865 50.6053 49.2977 50.3969 49.3807 50.2097C49.4637 50.0224 49.6135 49.8679 49.8046 49.7725C49.9956 49.677 50.2161 49.6465 50.4285 49.6861C50.6409 49.7257 50.832 49.8329 50.9694 49.9897C51.1068 50.1464 51.1819 50.3428 51.182 50.5455C51.1823 50.661 51.1582 50.7753 51.1109 50.8819C51.0636 50.9886 50.9942 51.0853 50.9066 51.1666ZM12.2059 46.1722H8.45021C7.70337 46.1728 6.9873 46.4508 6.45921 46.9451C5.93111 47.4395 5.63413 48.1097 5.63347 48.8088V52.3244C5.63413 53.0235 5.93111 53.6938 6.45921 54.1881C6.9873 54.6824 7.70337 54.9604 8.45021 54.961H12.2059C12.9526 54.9601 13.6685 54.682 14.1965 54.1878C14.7245 53.6935 15.0216 53.0234 15.0226 52.3244V48.8088C15.0216 48.1098 14.7245 47.4397 14.1965 46.9455C13.6685 46.4512 12.9526 46.1731 12.2059 46.1722ZM13.1448 52.3244C13.1444 52.5574 13.0454 52.7808 12.8694 52.9455C12.6934 53.1103 12.4548 53.203 12.2059 53.2033H8.45021C8.20119 53.2033 7.96238 53.1107 7.7863 52.9459C7.61022 52.781 7.5113 52.5575 7.5113 52.3244V48.8088C7.5113 48.5757 7.61022 48.3522 7.7863 48.1874C7.96238 48.0225 8.20119 47.9299 8.45021 47.9299H12.2059C12.4548 47.9303 12.6934 48.023 12.8694 48.1877C13.0454 48.3525 13.1444 48.5758 13.1448 48.8088V52.3244Z" fill="#7D4AC7"/>
</svg>
