<svg width="74" height="76" viewBox="0 0 74 76" fill="none" xmlns="http://www.w3.org/2000/svg">
<g clip-path="url(#clip0_18_739)" filter="url(#filter0_d_18_739)">
<path d="M23.3344 41.4536V68H25.4077V43.5268H48.8442V68H50.9175V41.4536H23.3344Z" fill="#2B3478"/>
<path d="M42.2524 51.2751V68H44.3256V53.3485H45.4314V51.2751H42.2524Z" fill="#2B3478"/>
<path d="M28.5685 51.2751V53.3485H29.6743V68H31.7475V51.2751H28.5685Z" fill="#2B3478"/>
<path d="M30.7747 17.0066V39.2751H43.4771V17.0066H30.7747ZM41.4036 37.2018H32.8479V19.0799H41.4036V37.2018Z" fill="#2B3478"/>
<path d="M51.9279 47.8197V49.893H67.8234V68H69.8966V47.8197H51.9279Z" fill="#2B3478"/>
<path d="M62.4326 55.4219V68H64.506V57.4952H65.75V55.4219H62.4326Z" fill="#2B3478"/>
<path d="M51.9279 55.4219V57.4952H53.0337V68H55.107V55.4219H51.9279Z" fill="#2B3478"/>
<path d="M55.2217 31.8872V45.6527H62.6095V31.8872H55.2217ZM60.5362 43.5794H57.295V33.9605H60.5362V43.5794Z" fill="#2B3478"/>
<path d="M4.10339 47.8197V68H6.1766V49.893H22.0721V47.8197H4.10339Z" fill="#2B3478"/>
<path d="M8.38818 55.4219V57.4952H9.35572V68H11.4291V55.4219H8.38818Z" fill="#2B3478"/>
<path d="M19.0312 55.4219V68H21.1046V57.4952H22.0721V55.4219H19.0312Z" fill="#2B3478"/>
<path d="M11.6423 31.8872V45.6527H19.0303V31.8872H11.6423ZM16.957 43.5794H13.7157V33.9605H16.957V43.5794Z" fill="#2B3478"/>
<path d="M38.2437 44.7781H36.1704V46.8514H38.2437V44.7781Z" fill="#2B3478"/>
<path d="M38.2437 47.819H36.1704V59.2913H38.2437V47.819Z" fill="#2B3478"/>
<path d="M33.8207 5.52405H31.7473V7.59738H33.8207V5.52405Z" fill="#2B3478"/>
<path d="M38.2437 5.52405H36.1704V7.59738H38.2437V5.52405Z" fill="#2B3478"/>
<path d="M42.3904 5.52405H40.317V7.59738H42.3904V5.52405Z" fill="#2B3478"/>
<path d="M48.7917 5.52407V0H25.4602V5.52407H23.316V7.59741H25.4602V12.7025H33.6238L37.1259 15.0377L40.6282 12.7025H48.7917V7.59727H50.8222V5.52407H48.7917ZM46.7183 10.6291H40.0002L37.1258 12.5456L34.2516 10.6291H27.5335V2.07334H46.7183V10.6291Z" fill="#2B3478"/>
<path d="M22.0721 7.59725V5.52405H14.7463V25.2557L13.4119 23.9211L11.9458 25.3874L15.7295 29.309L19.6513 25.3872L18.3232 23.9212L16.8196 25.4249V7.59725H22.0721Z" fill="#2B3478"/>
<path d="M60.7015 24.1976L59.2537 25.6457V5.52405H51.9279V7.59725H57.1803V25.5879L55.7902 24.1975L54.3239 25.6637L58.2459 29.5856L62.1676 25.6636L60.7015 24.1976Z" fill="#2B3478"/>
</g>
<defs>
<filter id="filter0_d_18_739" x="-1" y="0" width="76" height="76" filterUnits="userSpaceOnUse" color-interpolation-filters="sRGB">
<feFlood flood-opacity="0" result="BackgroundImageFix"/>
<feColorMatrix in="SourceAlpha" type="matrix" values="0 0 0 0 0 0 0 0 0 0 0 0 0 0 0 0 0 0 127 0" result="hardAlpha"/>
<feOffset dy="4"/>
<feGaussianBlur stdDeviation="2"/>
<feComposite in2="hardAlpha" operator="out"/>
<feColorMatrix type="matrix" values="0 0 0 0 0 0 0 0 0 0 0 0 0 0 0 0 0 0 0.25 0"/>
<feBlend mode="normal" in2="BackgroundImageFix" result="effect1_dropShadow_18_739"/>
<feBlend mode="normal" in="SourceGraphic" in2="effect1_dropShadow_18_739" result="shape"/>
</filter>
<clipPath id="clip0_18_739">
<rect width="68" height="68" fill="white" transform="translate(3)"/>
</clipPath>
</defs>
</svg>
