<svg width="58" height="58" viewBox="0 0 58 58" fill="none" xmlns="http://www.w3.org/2000/svg">
<path d="M57.33 25.2263L57.2869 23.4206C57.2569 20.43 57.1294 17.9756 56.895 15.6938C56.7806 14.4825 56.6081 13.4006 56.3737 12.3431L56.4075 12.5231C56.2444 11.55 55.8656 10.6875 55.3237 9.95438L55.335 9.97125C55.0519 9.62062 54.675 9.35812 54.2419 9.21562L54.225 9.21C53.5687 8.94375 52.8075 8.79 52.0106 8.79C50.8237 8.79 49.7156 9.13125 48.7819 9.72188L48.8062 9.70687C47.2725 10.8787 46.2412 12.6394 46.0481 14.6456L46.0462 14.6737L45.2137 22.875C44.9044 22.8075 44.5481 22.77 44.1825 22.77C42.2156 22.77 40.5075 23.8819 39.6544 25.5131L39.6413 25.5413L36.7912 30.4744L31.35 35.6681C31.1906 35.8181 31.0556 35.9906 30.945 36.18L30.9394 36.1912L29.8462 38.0831C29.79 38.0513 29.7262 38.0513 29.6681 38.0231C29.3831 37.8806 29.0494 37.7981 28.695 37.7981C28.3406 37.7981 28.005 37.8806 27.7069 38.0306L27.72 38.025C27.6619 38.0513 27.6 38.0531 27.5437 38.085L26.4525 36.1931C26.3363 35.9925 26.2012 35.82 26.0437 35.67L20.6025 30.4762L17.7525 25.5431C17.0606 24.27 15.9075 23.3231 14.5219 22.92L14.4844 22.9106C14.1375 22.8206 13.7381 22.7681 13.3256 22.7681C12.9188 22.7681 12.525 22.8188 12.1481 22.9144L12.1819 22.9069L11.3475 14.7131C11.16 12.6656 10.125 10.8919 8.60063 9.72375L8.58375 9.71062C7.6725 9.13312 6.56437 8.79187 5.37562 8.79187C4.57875 8.79187 3.8175 8.94563 3.12 9.225L3.16125 9.21C2.71312 9.35625 2.33625 9.62063 2.05688 9.96562L2.05313 9.96937C1.51313 10.7063 1.12875 11.5912 0.969375 12.5512L0.96375 12.5869C0.76875 13.4494 0.60375 14.5106 0.5025 15.5887L0.495 15.6919C0.25875 17.9663 0.135 20.4206 0.10125 23.415L0.058125 25.2413C0.020625 25.8413 0 26.5444 0 27.2513C0 28.6069 0.076875 29.9437 0.22875 31.2581L0.21375 31.0969C0.9225 35.9963 3.34687 40.23 6.84562 43.2506L6.87 43.2713C8.4975 44.5744 9.95063 45.9412 11.2856 47.4188L11.3138 47.4506L11.1431 47.55C10.4381 47.9625 9.97125 48.7163 9.97125 49.5806C9.97125 50.0119 10.0875 50.415 10.29 50.7619L10.2844 50.7506L13.2938 55.965C13.605 56.4975 14.1056 56.8894 14.7019 57.0525L14.7188 57.0563C14.8987 57.1069 15.105 57.1369 15.3206 57.1369C15.3225 57.1369 15.3244 57.1369 15.3263 57.1369C15.7575 57.1369 16.1625 57.0206 16.5094 56.8162L16.4981 56.8219L28.6912 49.7813L40.89 56.8219C41.2256 57.0206 41.6306 57.1369 42.0619 57.1369C42.9244 57.1369 43.6781 56.67 44.0831 55.9762L44.0887 55.965L47.0981 50.7506C47.295 50.415 47.4131 50.01 47.4131 49.5788C47.4131 48.7162 46.9462 47.9625 46.2525 47.5556L46.2413 47.55L46.0687 47.4506C47.4544 45.9225 48.9319 44.535 50.5125 43.2713L50.5875 43.2131C54.075 40.1775 56.4713 35.9681 57.1594 31.2038L57.1725 31.0988C57.3075 29.9438 57.3844 28.6069 57.3844 27.2513C57.3844 26.5388 57.3637 25.83 57.3206 25.1269L57.3244 25.2244L57.33 25.2263ZM9.84938 39.6581C7.21875 37.3463 5.40562 34.1587 4.86562 30.555L4.85625 30.4725C4.74937 29.5031 4.6875 28.38 4.6875 27.2419C4.6875 26.5913 4.70813 25.9444 4.7475 25.3031L4.74375 25.3913L4.78875 23.4731C4.82062 20.625 4.93687 18.3094 5.15625 16.1775C5.24625 15.18 5.38687 14.2838 5.58 13.4081L5.55375 13.5506L5.56313 13.5056C5.56875 13.5056 5.57437 13.5056 5.58 13.5056C5.72625 13.5056 5.865 13.545 5.98312 13.6144L5.97937 13.6125C6.37125 14.0156 6.62812 14.55 6.68062 15.1425V15.1519L8.01937 28.3162C8.055 28.665 8.16187 28.9819 8.325 29.2613L8.31938 29.25L9.07313 30.5569L9.07875 30.5625L14.355 39.6994C14.7656 40.4119 15.5231 40.8825 16.3912 40.8825C17.685 40.8825 18.735 39.8344 18.735 38.5387C18.735 38.1019 18.615 37.695 18.4088 37.3444L18.4144 37.3556L13.1306 28.2019C12.9788 27.9375 12.8513 27.6 13.0781 27.4669C13.3125 27.3394 13.5413 27.6281 13.6931 27.8906L16.7081 33.1144C16.8244 33.315 16.9613 33.4875 17.1187 33.6375L22.56 38.8331L23.4825 40.4306L15.4237 45.0825C13.7362 43.0838 11.9119 41.3063 9.92813 39.7181L9.84938 39.6581ZM41.2069 51.5962L29.8725 45.0563C29.8237 45.0281 29.7694 45.0281 29.7188 45.0056C29.535 44.91 29.3231 44.8369 29.1 44.7956L29.0869 44.7938C29.0025 44.7825 28.905 44.775 28.8056 44.775C28.7644 44.7731 28.7175 44.7713 28.6687 44.7713C28.5094 44.7713 28.3537 44.7881 28.2019 44.82L28.2169 44.8181C28.0856 44.8519 27.975 44.8894 27.8681 44.9362L27.8831 44.9306C27.7481 44.9644 27.6337 45.0037 27.5231 45.0525L27.5381 45.0469L16.1869 51.6019L15.5194 50.445L28.6969 42.8381L41.8763 50.445L41.2069 51.5962ZM52.5337 30.4725C51.9919 34.1287 50.205 37.2919 47.6269 39.585L47.6119 39.5981C45.5231 41.265 43.6744 43.0613 42.0112 45.0225L41.9644 45.0806L33.9056 40.4287L34.8281 38.8331L40.2694 33.6375C40.4287 33.4875 40.5637 33.315 40.6744 33.1256L40.68 33.1144L43.6969 27.8906C43.8206 27.6769 44.0775 27.3375 44.3119 27.4669C44.5275 27.5906 44.3812 27.9956 44.2575 28.2113L38.9775 37.3538C38.775 37.6931 38.6569 38.1019 38.6569 38.5369C38.6569 39.8306 39.705 40.8806 41.0006 40.8806C41.8669 40.8806 42.6244 40.41 43.0294 39.7087L43.035 39.6975L49.0706 29.2481C49.23 28.98 49.3387 28.6613 49.3744 28.3219V28.3125L50.7113 15.1406C50.7656 14.5406 51.0225 14.01 51.4106 13.6087C51.525 13.5431 51.6637 13.5037 51.81 13.5037C51.8156 13.5037 51.8194 13.5037 51.825 13.5037C51.8363 13.5431 51.8438 13.5806 51.8512 13.62C52.0106 14.3344 52.1456 15.2081 52.2262 16.0988L52.2319 16.1812C52.455 18.3131 52.5731 20.6287 52.6012 23.4731L52.6481 25.3725C52.6838 25.9275 52.7044 26.5781 52.7044 27.2325C52.7044 28.3744 52.6425 29.5013 52.5244 30.6112L52.5356 30.4744L52.5337 30.4725ZM17.4262 14.6213V19.1775C17.43 22.5413 20.1562 25.2675 23.52 25.2713H33.6806C37.0444 25.2675 39.7706 22.5413 39.7744 19.1775V14.6231C40.6687 13.86 41.235 12.735 41.2463 11.4787V10.0969C41.2275 8.55 40.3725 7.20937 39.1125 6.50063L39.0919 6.48938C39.2344 6.03937 39.3169 5.52 39.3169 4.98187C39.3169 4.57688 39.27 4.18313 39.1819 3.80625L39.1894 3.84187C38.6925 1.90875 37.14 0.436875 35.1975 0.0675L35.1656 0.0618751C34.92 0.0225001 34.635 0.00187509 34.3462 0.00187509C32.3587 0.00187509 30.6169 1.04625 29.6362 2.61563L29.6231 2.63812L28.6031 4.10625L27.5831 2.63812C26.5875 1.04437 24.8419 0 22.8525 0C22.5656 0 22.2844 0.0225001 22.0087 0.0637501L22.0387 0.06C20.0644 0.436875 18.51 1.90688 18.0206 3.80625L18.0131 3.84187C17.9325 4.185 17.8856 4.57875 17.8856 4.98375C17.8856 5.52187 17.9681 6.04125 18.1219 6.52875L18.1125 6.49312C16.8319 7.21125 15.9769 8.55188 15.9581 10.095V11.4787C15.9694 12.7369 16.5338 13.8619 17.4225 14.6194L17.4281 14.625L17.4262 14.6213ZM36.5588 11.0175H30.945V10.5544H36.5588V11.0175ZM20.6437 10.5544H26.2575V11.0175H20.6437V10.5544ZM22.1137 19.1775V15.705H26.2575V20.5838H23.52C22.7475 20.5725 22.125 19.9481 22.1137 19.1775ZM35.0869 19.1775C35.0756 19.95 34.4531 20.5725 33.6825 20.5838H30.9469V15.705H35.0887L35.0869 19.1775ZM34.3256 4.6725C34.4831 4.71187 34.6031 4.83187 34.6444 4.98375V4.9875C34.6444 5.00062 34.6444 5.01562 34.6444 5.0325C34.6444 5.3625 34.5056 5.65875 34.2825 5.86875H33.0825L33.4688 5.31375C33.765 4.88813 34.08 4.6425 34.3256 4.6725ZM22.8769 4.6725C23.1262 4.64813 23.4356 4.88625 23.7319 5.31188L24.1181 5.86875H22.9725C22.6725 5.4975 22.5094 5.16938 22.5544 4.98938C22.5956 4.83188 22.7175 4.71187 22.8713 4.6725H22.8769Z" fill="#2B3478"/>
</svg>
