<svg width="68" height="68" viewBox="0 0 68 68" fill="none" xmlns="http://www.w3.org/2000/svg">
<path d="M57.375 7.79163H10.625C9.87351 7.79163 9.15284 8.09014 8.62149 8.62149C8.09014 9.15284 7.79163 9.87351 7.79163 10.625V57.375C7.79163 58.1264 8.09014 58.8471 8.62149 59.3784C9.15284 59.9098 9.87351 60.2083 10.625 60.2083H57.375C58.1264 60.2083 58.8471 59.9098 59.3784 59.3784C59.9098 58.8471 60.2083 58.1264 60.2083 57.375V10.625C60.2083 9.87351 59.9098 9.15284 59.3784 8.62149C58.8471 8.09014 58.1264 7.79163 57.375 7.79163Z" stroke="#2B3478" stroke-width="1.25" stroke-linecap="round" stroke-linejoin="round"/>
<path d="M30.2741 28.6733L34.5241 32.7108C34.6052 32.7934 34.7046 32.8557 34.8142 32.8927C34.9238 32.9296 35.0406 32.9403 35.1551 32.9237C35.2696 32.9072 35.3786 32.8639 35.4733 32.7974C35.5679 32.7308 35.6456 32.643 35.7 32.5408L45.7441 14.6058L22.8933 19.8333C22.7608 19.8632 22.6389 19.9283 22.5406 20.0219C22.4422 20.1155 22.3711 20.2341 22.3348 20.3649C22.2984 20.4957 22.2982 20.6339 22.3342 20.7648C22.3702 20.8958 22.441 21.0145 22.5391 21.1083L28.2058 26.5908M28.2058 26.5908L39.0716 19.3517M28.2058 26.5908L30.3166 28.6733L26.9166 31.4075C26.8298 31.476 26.7257 31.5189 26.6158 31.5315C26.506 31.5441 26.3948 31.5258 26.2948 31.4787C26.1948 31.4316 26.1098 31.3576 26.0495 31.265C25.9892 31.1723 25.9559 31.0647 25.9533 30.9542V24.48" stroke="#2B3478" stroke-width="1.25" stroke-linecap="round" stroke-linejoin="round"/>
<path d="M49.2291 45.0074V50.2774C49.2291 51.3107 48.8187 52.3016 48.0881 53.0322C47.3575 53.7628 46.3665 54.1733 45.3333 54.1733C44.8221 54.1731 44.316 54.0717 43.8442 53.8747C43.3725 53.6777 42.9445 53.3892 42.585 53.0258" stroke="#2B3478" stroke-width="1.25" stroke-linecap="round" stroke-linejoin="round"/>
<path d="M49.2292 38.59V45.0075C49.2292 45.5191 49.1284 46.0257 48.9326 46.4983C48.7368 46.971 48.4499 47.4005 48.0881 47.7622C47.7263 48.124 47.2969 48.411 46.8242 48.6067C46.3515 48.8025 45.8449 48.9033 45.3333 48.9033C44.3001 48.9033 43.3092 48.4928 42.5786 47.7622C41.848 47.0316 41.4375 46.0407 41.4375 45.0075V38.59" stroke="#2B3478" stroke-width="1.25" stroke-linecap="round" stroke-linejoin="round"/>
<path d="M37.8958 45.0075C37.8958 45.5191 37.795 46.0257 37.5993 46.4983C37.4035 46.971 37.1165 47.4005 36.7548 47.7622C36.393 48.124 35.9635 48.411 35.4909 48.6067C35.0182 48.8025 34.5116 48.9033 34 48.9033C32.9667 48.9033 31.9758 48.4928 31.2452 47.7622C30.5146 47.0316 30.1042 46.0407 30.1042 45.0075V42.5C30.1023 41.9872 30.2017 41.479 30.3966 41.0047C30.5916 40.5304 30.8782 40.0993 31.2402 39.736C31.6021 39.3728 32.0322 39.0845 32.5058 38.8879C32.9794 38.6912 33.4872 38.59 34 38.59C34.5128 38.59 35.0205 38.6912 35.4941 38.8879C35.9677 39.0845 36.3978 39.3728 36.7598 39.736C37.1217 40.0993 37.4084 40.5304 37.6033 41.0047C37.7983 41.479 37.8977 41.9872 37.8958 42.5" stroke="#2B3478" stroke-width="1.25" stroke-linecap="round" stroke-linejoin="round"/>
<path d="M37.8959 48.9033V38.59" stroke="#2B3478" stroke-width="1.25" stroke-linecap="round" stroke-linejoin="round"/>
<path d="M18.7708 45.0075C18.7708 45.5191 18.8715 46.0257 19.0673 46.4983C19.2631 46.971 19.5501 47.4005 19.9118 47.7622C20.2736 48.124 20.7031 48.411 21.1757 48.6067C21.6484 48.8025 22.155 48.9033 22.6666 48.9033C23.6999 48.9033 24.6908 48.4928 25.4214 47.7622C26.152 47.0316 26.5624 46.0407 26.5624 45.0075V42.5C26.5643 41.9872 26.4649 41.479 26.27 41.0047C26.075 40.5304 25.7883 40.0993 25.4264 39.736C25.0645 39.3728 24.6344 39.0845 24.1608 38.8879C23.6872 38.6912 23.1794 38.59 22.6666 38.59C22.1538 38.59 21.6461 38.6912 21.1725 38.8879C20.6989 39.0845 20.2688 39.3728 19.9068 39.736C19.5449 40.0993 19.2582 40.5304 19.0633 41.0047C18.8683 41.479 18.7689 41.9872 18.7708 42.5" stroke="#2B3478" stroke-width="1.25" stroke-linecap="round" stroke-linejoin="round"/>
<path d="M18.7709 38.59V54.1733" stroke="#2B3478" stroke-width="1.25" stroke-linecap="round" stroke-linejoin="round"/>
</svg>
