<?xml version="1.0" encoding="UTF-8" standalone="no" ?>
<!DOCTYPE svg PUBLIC "-//W3C//DTD SVG 1.1//EN" "http://www.w3.org/Graphics/SVG/1.1/DTD/svg11.dtd">
<svg xmlns="http://www.w3.org/2000/svg" xmlns:xlink="http://www.w3.org/1999/xlink" version="1.1" width="1080" height="1080" viewBox="0 0 1080 1080" xml:space="preserve">
<desc>Created with Fabric.js 5.2.4</desc>
<defs>
</defs>
<g transform="matrix(1 0 0 1 540 540)" id="7a1b4f6b-2a81-4103-9472-ee0b2394ea92"  >
<rect style="stroke: none; stroke-width: 1; stroke-dasharray: none; stroke-linecap: butt; stroke-dashoffset: 0; stroke-linejoin: miter; stroke-miterlimit: 4; fill: rgb(255,255,255); fill-rule: nonzero; opacity: 1; visibility: hidden;" vector-effect="non-scaling-stroke"  x="-540" y="-540" rx="0" ry="0" width="1080" height="1080" />
</g>
<g transform="matrix(1 0 0 1 540 540)" id="d96f305a-9704-4646-9f78-b02a3b05b58c"  >
</g>
<g transform="matrix(5.71 0 0 5.71 673.23 381.07)"  >
<ellipse style="stroke: none; stroke-width: 1; stroke-dasharray: none; stroke-linecap: butt; stroke-dashoffset: 0; stroke-linejoin: miter; stroke-miterlimit: 4; fill: rgb(218,173,172); fill-rule: nonzero; opacity: 1;" vector-effect="non-scaling-stroke"  cx="0" cy="0" rx="6.455" ry="4.693" />
</g>
<g transform="matrix(5.71 0 0 5.71 413.68 381.07)"  >
<ellipse style="stroke: none; stroke-width: 1; stroke-dasharray: none; stroke-linecap: butt; stroke-dashoffset: 0; stroke-linejoin: miter; stroke-miterlimit: 4; fill: rgb(218,173,172); fill-rule: nonzero; opacity: 1;" vector-effect="non-scaling-stroke"  cx="0" cy="0" rx="6.455" ry="4.693" />
</g>
<g transform="matrix(5.71 0 0 5.71 256.35 884.64)"  >
<path style="stroke: none; stroke-width: 1; stroke-dasharray: none; stroke-linecap: butt; stroke-dashoffset: 0; stroke-linejoin: miter; stroke-miterlimit: 4; fill: rgb(162,89,255); fill-rule: nonzero; opacity: 1;" vector-effect="non-scaling-stroke"  transform=" translate(-94.93, -195)" d="M 131.103 222.869 C 129.734 219.15 128.506 215.385 127.51400000000001 211.547 C 126.18200000000002 206.391 125.10100000000001 201.18 124.05400000000002 195.96099999999998 C 123.15900000000002 191.50099999999998 122.39800000000001 187.016 121.81700000000002 182.50799999999998 C 121.25100000000002 178.10899999999998 120.74200000000002 173.69599999999997 120.66000000000003 169.25099999999998 C 120.64900000000003 168.64099999999996 120.65700000000002 168.02799999999996 120.34300000000003 167.46899999999997 C 120.16400000000003 167.15099999999995 119.82000000000004 167.02799999999996 119.50700000000003 167.23899999999998 C 117.32000000000004 168.70899999999997 114.86200000000004 169.59599999999998 112.41900000000004 170.49099999999999 C 107.99500000000003 172.112 103.55100000000004 173.684 99.09800000000004 175.226 C 94.16600000000004 176.934 89.33300000000004 178.867 84.68500000000004 181.253 C 80.80000000000004 183.248 77.31200000000004 185.773 74.29400000000004 188.94 C 72.52900000000004 190.792 70.88300000000004 192.746 69.42600000000004 194.846 C 65.40100000000004 200.643 62.517000000000046 206.979 60.64400000000005 213.77700000000002 C 59.82000000000005 216.76600000000002 59.19000000000005 219.79700000000003 58.76600000000005 222.86800000000002 L 131.103 222.86800000000002 z" stroke-linecap="round" />
</g>
<g transform="matrix(5.71 0 0 5.71 821.98 884.81)"  >
<path style="stroke: none; stroke-width: 1; stroke-dasharray: none; stroke-linecap: butt; stroke-dashoffset: 0; stroke-linejoin: miter; stroke-miterlimit: 4; fill: rgb(162,89,255); fill-rule: nonzero; opacity: 1;" vector-effect="non-scaling-stroke"  transform=" translate(-194.06, -195.03)" d="M 230.234 222.869 C 229.80700000000002 219.815 229.198 216.796 228.364 213.827 C 226.025 205.5 222.35500000000002 197.857 216.745 191.203 C 213.191 186.987 209.00400000000002 183.593 204.059 181.127 C 200.333 179.268 196.534 177.58800000000002 192.608 176.196 C 187.017 174.213 181.427 172.23 175.848 170.212 C 173.762 169.458 171.703 168.625 169.8 167.45999999999998 C 169.008 166.97599999999997 168.633 167.134 168.44 168.04099999999997 C 168.382 168.31099999999998 168.347 168.59099999999998 168.349 168.86699999999996 C 168.361 170.97999999999996 168.153 173.07799999999997 167.969 175.17799999999997 C 167.684 178.43899999999996 167.339 181.69399999999996 166.84699999999998 184.92899999999997 C 166.12099999999998 189.69799999999998 165.26099999999997 194.44299999999998 164.29799999999997 199.17099999999996 C 162.66199999999998 207.20799999999997 160.78199999999998 215.17599999999996 157.89399999999998 222.86699999999996 L 230.234 222.86699999999996 z" stroke-linecap="round" />
</g>
<g transform="matrix(5.71 0 0 5.71 539.17 390.27)"  >
<path style="stroke: none; stroke-width: 1; stroke-dasharray: none; stroke-linecap: butt; stroke-dashoffset: 0; stroke-linejoin: miter; stroke-miterlimit: 4; fill: rgb(32,47,67); fill-rule: nonzero; opacity: 1;" vector-effect="non-scaling-stroke"  transform=" translate(-144.5, -108.36)" d="M 119.963 166.244 C 120.15499999999999 163.487 120.33999999999999 160.997 120.499 158.506 C 120.672 155.792 120.812 153.076 120.988 150.362 C 121.034 149.65 120.823 149.141 120.304 148.602 C 117.889 146.09300000000002 116.04 143.249 115.017 139.856 C 114.085 136.76399999999998 113.359 133.649 112.895 130.454 C 112.432 127.268 112.032 124.07700000000001 111.735 120.873 C 111.587 119.272 111.608 117.655 111.332 116.06400000000001 C 111.27499999999999 115.736 111.252 115.402 111.18799999999999 115.07600000000001 C 111.118 114.72200000000001 110.89899999999999 114.47900000000001 110.54299999999999 114.393 C 110.27399999999999 114.328 109.99399999999999 114.306 109.725 114.239 C 107.116 113.586 104.89 112.298 103.193 110.186 C 99.393 105.456 100.42699999999999 98.819 105.501 95.281 C 106.65 94.48 107.905 93.88900000000001 109.26 93.54400000000001 C 109.78200000000001 93.41100000000002 109.96900000000001 93.14900000000002 110.009 92.62800000000001 C 110.327 88.42300000000002 110.64 84.21700000000001 111.009 80.01600000000002 C 111.574 73.59000000000002 112.534 67.23700000000002 114.66 61.10900000000002 C 115.502 58.68200000000002 116.494 56.340000000000025 118.249 54.404000000000025 C 118.547 54.075000000000024 118.847 53.74700000000003 119.163 53.43600000000002 C 120.25099999999999 52.36400000000002 121.47999999999999 51.959000000000024 122.943 52.64100000000002 C 123.193 52.75800000000002 123.467 52.82000000000002 123.728 52.91500000000002 C 125.154 53.43600000000002 126.56099999999999 53.36200000000002 127.946 52.77100000000002 C 128.507 52.532000000000025 129.056 52.26300000000002 129.609 52.005000000000024 C 130.162 51.74700000000002 130.71800000000002 51.49400000000002 131.26500000000001 51.22300000000003 C 132.984 50.37400000000003 134.67800000000003 50.38700000000003 136.36 51.334000000000024 C 136.746 51.55100000000002 137.162 51.71400000000003 137.55900000000003 51.91400000000002 C 138.53500000000003 52.404000000000025 139.47600000000003 52.37500000000002 140.40100000000004 51.77100000000002 C 140.91200000000003 51.43700000000002 141.43900000000005 51.127000000000024 141.96500000000003 50.816000000000024 C 143.01800000000003 50.193000000000026 144.11800000000002 49.669000000000025 145.26100000000002 49.230000000000025 C 146.42600000000002 48.782000000000025 147.53500000000003 48.89700000000003 148.645 49.419000000000025 C 149.458 49.80200000000003 150.174 50.313000000000024 150.85000000000002 50.89600000000002 C 151.60700000000003 51.54800000000002 152.36200000000002 52.203000000000024 153.14700000000002 52.82100000000002 C 154.24400000000003 53.68300000000002 155.479 53.81800000000002 156.76300000000003 53.33600000000002 C 157.69700000000003 52.98500000000002 158.60300000000004 52.56100000000002 159.52000000000004 52.16600000000002 C 161.66200000000003 51.243000000000016 162.50400000000005 51.39400000000002 164.12400000000005 53.039000000000016 C 164.82500000000005 53.75100000000002 165.46800000000005 54.521000000000015 166.18200000000004 55.219000000000015 C 166.99200000000005 56.01100000000002 167.24500000000003 56.045000000000016 168.24900000000005 55.552000000000014 C 168.84500000000006 55.259000000000015 169.39700000000005 54.878000000000014 169.97900000000004 54.55600000000001 C 171.32400000000004 53.81200000000001 172.33500000000004 53.927000000000014 173.47300000000004 54.96700000000001 C 174.43300000000005 55.84500000000001 175.08200000000005 56.94600000000001 175.60700000000003 58.11800000000001 C 176.70000000000002 60.55800000000001 177.48600000000002 63.10000000000001 178.01700000000002 65.718 C 179.07700000000003 70.944 179.77700000000002 76.217 180.12000000000003 81.541 C 180.36600000000004 85.36 180.73200000000003 89.172 181.00200000000004 92.99 C 181.05200000000005 93.69399999999999 181.30900000000003 94.098 181.94600000000003 94.381 C 182.91400000000002 94.812 183.77800000000002 95.42 184.56600000000003 96.134 C 189.53700000000003 100.641 189.22200000000004 107.999 183.88000000000002 112.063 C 182.39900000000003 113.19 180.75000000000003 113.96300000000001 178.91500000000002 114.294 C 178.335 114.399 178.07200000000003 114.646 177.997 115.252 C 177.71 117.562 177.45200000000003 119.881 177.037 122.17 C 176.05700000000002 127.571 175.231 133.001 174.08 138.371 C 173.334 141.853 171.67200000000003 144.78900000000002 169.019 147.163 C 168.853 147.311 168.699 147.473 168.522 147.60600000000002 C 168.083 147.93800000000002 167.93599999999998 148.36300000000003 167.969 148.91200000000003 C 168.047 150.18600000000004 168.06 151.46500000000003 168.136 152.73900000000003 C 168.34 156.17300000000003 168.561 159.60600000000002 168.779 163.04000000000002 C 168.85999999999999 164.31300000000002 168.958 165.586 169.033 166.86 C 169.052 167.17800000000003 169.10899999999998 167.53 168.74599999999998 167.735 C 168.49699999999999 167.876 168.265 167.55700000000002 168.177 166.91000000000003 C 168.10999999999999 166.41500000000002 168.051 165.91700000000003 168.022 165.419 C 167.756 160.931 167.49599999999998 156.442 167.23499999999999 151.953 C 167.232 151.898 167.236 151.841 167.22899999999998 151.787 C 167.12699999999998 150.964 167.023 150.142 166.92 149.31900000000002 C 166.01299999999998 149.33200000000002 165.57 150.15200000000002 164.85799999999998 150.507 C 164.41299999999998 150.729 164.01399999999998 151.044 163.575 151.28 C 159.21699999999998 153.616 154.73399999999998 155.681 150.10399999999998 157.416 C 147.41699999999997 158.422 144.61499999999998 158.753 141.759 158.663 C 140.02599999999998 158.609 138.35 158.223 136.713 157.675 C 135.345 157.217 133.994 156.709 132.629 156.245 C 129.386 155.144 126.49799999999999 153.399 123.755 151.386 C 123.35199999999999 151.09 122.955 150.787 122.541 150.508 C 122.163 150.25300000000001 121.966 150.358 121.884 150.84 C 121.838 151.113 121.8 151.39000000000001 121.784 151.666 C 121.632 154.271 121.488 156.876 121.337 159.48 C 121.215 161.58599999999998 121.089 163.691 120.955 165.796 C 120.92699999999999 166.239 120.861 166.67999999999998 120.79899999999999 167.119 C 120.761 167.391 120.711 167.746 120.38099999999999 167.735 C 119.91999999999999 167.72000000000003 119.98099999999998 167.29700000000003 119.96999999999998 166.977 C 119.955 166.646 119.963 166.312 119.963 166.244 z M 127.19 140.14 C 127.28 138.998 127.28699999999999 138.16099999999997 127.419 137.344 C 128.05599999999998 133.403 128.704 129.463 129.397 125.53099999999999 C 129.618 124.279 129.941 123.04499999999999 130.439 121.85699999999999 C 131.2 120.04199999999999 132.529 119.06299999999999 134.47 118.82799999999999 C 135.849 118.66099999999999 137.226 118.53799999999998 138.618 118.53499999999998 C 143.003 118.52599999999998 147.388 118.48999999999998 151.773 118.46699999999998 C 152.328 118.46399999999998 152.884 118.46699999999998 153.439 118.47799999999998 C 154.672 118.50399999999998 155.682 118.99799999999998 156.521 119.90099999999998 C 157.39999999999998 120.84799999999998 158.058 121.93799999999999 158.628 123.08299999999998 C 159.61999999999998 125.07399999999998 160.385 127.15699999999998 161.03799999999998 129.28099999999998 C 161.86999999999998 131.98699999999997 162.53699999999998 134.73399999999998 163.03599999999997 137.521 C 163.07399999999998 137.731 163.05899999999997 137.999 163.29399999999998 138.087 C 163.624 138.212 163.791 137.91799999999998 163.95999999999998 137.72 C 164.86199999999997 136.665 165.75099999999998 135.603 166.53499999999997 134.452 C 169.57699999999997 129.986 171.53499999999997 125.069 172.65599999999998 119.804 C 173.01399999999998 118.123 173.32399999999998 116.431 173.63299999999998 114.74000000000001 C 173.74999999999997 114.10000000000001 174.09099999999998 113.75200000000001 174.73399999999998 113.70400000000001 C 175.50799999999998 113.646 176.28199999999998 113.561 177.058 113.549 C 180.392 113.501 183.088 112.09200000000001 185.129 109.542 C 187.302 106.828 187.861 103.729 186.54 100.46600000000001 C 185.164 97.069 182.487 95.141 178.98999999999998 94.286 C 178.07399999999998 94.062 177.135 93.979 176.18499999999997 93.968 C 175.47699999999998 93.96000000000001 175.19399999999996 93.64 175.11599999999999 92.94800000000001 C 175.08499999999998 92.673 175.111 92.393 175.09599999999998 92.11600000000001 C 174.87099999999998 88.11800000000001 174.32799999999997 84.168 173.31599999999997 80.28800000000001 C 172.61099999999996 77.58500000000001 171.60499999999996 75.019 169.95299999999997 72.72900000000001 C 168.15299999999996 70.23500000000001 165.76699999999997 68.65700000000001 162.79099999999997 67.91400000000002 C 160.89499999999998 67.44000000000001 158.97999999999996 67.20800000000001 157.02799999999996 67.18200000000002 C 154.47599999999997 67.14800000000001 151.91499999999996 66.90600000000002 149.37499999999997 67.05700000000002 C 146.27499999999998 67.24200000000002 143.16499999999996 67.21100000000001 140.06899999999996 67.54500000000002 C 136.98199999999997 67.87800000000001 133.87299999999996 67.99700000000001 130.78299999999996 68.30400000000002 C 128.40699999999995 68.53900000000002 126.09299999999996 69.10000000000002 123.81699999999996 69.85500000000002 C 121.35199999999996 70.67400000000002 119.60599999999997 72.25800000000002 118.39899999999996 74.49800000000002 C 117.68699999999995 75.82100000000001 117.14199999999995 77.21500000000002 116.73099999999995 78.66200000000002 C 115.66799999999995 82.40200000000002 114.94699999999995 86.21400000000003 114.33499999999995 90.04900000000002 C 114.16899999999995 91.08600000000003 113.98099999999995 92.12100000000002 113.77799999999995 93.15200000000002 C 113.66799999999995 93.71400000000001 113.30899999999995 94.01600000000002 112.71599999999995 93.98500000000001 C 111.81999999999995 93.93900000000001 110.94099999999995 94.07700000000001 110.07599999999995 94.27400000000002 C 107.19399999999995 94.93100000000001 104.84199999999996 96.40400000000001 103.24699999999996 98.93000000000002 C 102.08799999999995 100.76600000000002 101.55299999999995 102.77000000000002 101.89299999999996 104.96300000000002 C 102.43899999999996 108.49000000000002 104.43799999999996 110.95500000000003 107.56999999999996 112.47800000000002 C 109.73699999999997 113.53200000000002 112.05399999999996 114.05200000000002 114.49699999999996 113.58200000000002 C 114.71299999999995 113.54100000000003 114.93999999999996 113.54400000000003 115.16099999999996 113.54900000000002 C 115.88499999999996 113.56500000000003 116.16899999999995 113.75900000000001 116.33599999999996 114.47000000000003 C 116.58899999999996 115.54900000000002 116.79799999999996 116.63900000000002 117.01599999999996 117.72600000000003 C 118.21499999999996 123.69500000000002 120.28499999999997 129.35800000000003 123.04399999999997 134.77200000000002 C 124.032 136.715 125.451 138.34 127.19 140.14 z M 144.691 123.662 C 144.691 123.661 144.691 123.66000000000001 144.691 123.659 C 143.249 123.659 141.80700000000002 123.67500000000001 140.366 123.65400000000001 C 139.30900000000003 123.63900000000001 138.27 123.74300000000001 137.22600000000003 123.90800000000002 C 135.47600000000003 124.18500000000002 134.26000000000002 125.06100000000002 133.73100000000002 126.79400000000001 C 133.66600000000003 127.00600000000001 133.58300000000003 127.21300000000001 133.52300000000002 127.42600000000002 C 132.92100000000002 129.55900000000003 132.39200000000002 131.71 132.03100000000003 133.89700000000002 C 131.59700000000004 136.52400000000003 131.46300000000002 139.181 131.27900000000002 141.83300000000003 C 131.22000000000003 142.68100000000004 131.21900000000002 142.717 132.04000000000002 143.04800000000003 C 134.68300000000002 144.11300000000003 137.41400000000002 144.75400000000002 140.27900000000002 144.81200000000004 C 143.55800000000002 144.87900000000005 146.81600000000003 144.70300000000003 150.05100000000002 144.16300000000004 C 152.51700000000002 143.75200000000004 154.93 143.14700000000005 157.24400000000003 142.18400000000003 C 157.93000000000004 141.89900000000003 158.00100000000003 141.77900000000002 157.87000000000003 141.04800000000003 C 157.29100000000003 137.83200000000002 156.68100000000004 134.62100000000004 155.85700000000003 131.45700000000002 C 155.36800000000002 129.58 154.73000000000002 127.75300000000003 153.89200000000002 125.99100000000003 C 153.16500000000002 124.46300000000002 151.97700000000003 123.75600000000003 150.34700000000004 123.67600000000003 C 149.90400000000002 123.65400000000002 149.46000000000004 123.66300000000003 149.01600000000005 123.66300000000003 C 147.574 123.661 146.132 123.662 144.691 123.662 z" stroke-linecap="round" />
</g>
<g transform="matrix(5.71 0 0 5.71 734.03 903.56)"  >
<path style="stroke: none; stroke-width: 1; stroke-dasharray: none; stroke-linecap: butt; stroke-dashoffset: 0; stroke-linejoin: miter; stroke-miterlimit: 4; fill: rgb(32,47,67); fill-rule: nonzero; opacity: 1;" vector-effect="non-scaling-stroke"  transform=" translate(-178.65, -198.32)" d="M 170.552 179.166 C 171.79999999999998 180.093 173.07899999999998 180.97899999999998 174.29899999999998 181.941 C 177.39399999999998 184.381 180.468 186.848 183.53999999999996 189.31900000000002 C 184.53999999999996 190.12400000000002 184.59699999999995 190.431 184.11799999999997 191.603 C 184.05499999999998 191.757 183.98599999999996 191.90900000000002 183.91099999999997 192.05800000000002 C 183.08899999999997 193.69400000000002 182.32899999999998 195.365 181.43199999999996 196.95900000000003 C 178.51499999999996 202.13600000000002 175.94199999999995 207.48900000000003 173.25299999999996 212.78300000000004 C 171.54899999999995 216.13800000000003 170.04399999999995 219.59400000000005 168.18499999999995 222.87000000000003 L 169.18299999999994 222.87000000000003 C 169.85599999999994 221.60200000000003 170.52699999999993 220.33200000000002 171.15899999999993 219.04400000000004 C 174.82799999999995 211.57200000000003 178.43499999999995 204.07000000000005 182.49299999999994 196.79500000000004 C 183.46599999999995 195.05100000000004 184.32299999999995 193.24500000000003 185.10599999999994 191.40500000000006 C 185.50899999999993 190.45800000000006 185.32299999999995 189.67900000000006 184.52599999999993 189.03400000000005 C 183.96499999999992 188.58000000000004 183.40699999999993 188.12300000000005 182.85899999999992 187.65400000000005 C 182.66699999999992 187.49000000000007 182.6479999999999 187.27000000000007 182.81599999999992 187.06800000000004 C 182.9929999999999 186.85400000000004 183.18099999999993 186.65100000000004 183.3679999999999 186.44600000000003 C 184.82799999999992 184.84700000000004 186.29299999999992 183.25200000000004 187.7469999999999 181.64800000000002 C 188.0819999999999 181.27900000000002 188.4099999999999 180.89700000000002 188.6919999999999 180.48800000000003 C 189.27299999999988 179.64500000000004 189.2699999999999 179.17200000000003 188.5989999999999 178.39800000000002 C 187.3609999999999 176.973 186.0849999999999 175.58200000000002 184.8209999999999 174.181 C 184.7109999999999 174.059 184.58499999999992 173.946 184.4509999999999 173.851 C 184.31099999999992 173.751 184.1419999999999 173.727 183.9989999999999 173.843 C 183.8569999999999 173.958 183.79799999999992 174.124 183.9159999999999 174.28099999999998 C 184.1479999999999 174.58999999999997 184.3899999999999 174.89299999999997 184.64499999999992 175.18299999999996 C 185.70899999999992 176.39099999999996 186.78999999999994 177.58499999999995 187.84399999999994 178.80199999999996 C 188.39699999999993 179.43999999999997 188.40999999999994 179.55199999999996 187.84899999999993 180.22299999999996 C 186.06699999999992 182.35299999999995 184.19899999999993 184.40699999999995 182.24999999999994 186.38399999999996 C 181.86299999999994 186.77699999999996 181.74399999999994 186.78499999999997 181.26499999999993 186.40599999999995 C 180.22099999999992 185.57899999999995 179.21199999999993 184.70599999999996 178.15699999999993 183.89199999999994 C 175.91499999999994 182.16399999999993 173.65699999999993 180.45599999999993 171.39399999999992 178.75399999999993 C 171.04899999999992 178.49399999999994 170.72199999999992 178.15899999999993 170.23599999999993 178.16999999999993 C 170.13599999999994 178.22299999999993 170.00899999999993 178.25199999999992 169.95599999999993 178.32999999999993 C 169.90699999999993 178.40199999999993 169.89299999999994 178.57099999999994 169.94199999999992 178.62299999999993 C 170.127 178.82 170.333 179.003 170.552 179.166 z" stroke-linecap="round" />
</g>
<g transform="matrix(5.71 0 0 5.71 348.8 900.45)"  >
<path style="stroke: none; stroke-width: 1; stroke-dasharray: none; stroke-linecap: butt; stroke-dashoffset: 0; stroke-linejoin: miter; stroke-miterlimit: 4; fill: rgb(32,47,67); fill-rule: nonzero; opacity: 1;" vector-effect="non-scaling-stroke"  transform=" translate(-111.14, -197.77)" d="M 105.142 180.542 C 106.089 181.631 107.074 182.687 108.03999999999999 183.75900000000001 C 108.3 184.04700000000003 108.55999999999999 184.33700000000002 108.79799999999999 184.64200000000002 C 109.01099999999998 184.91500000000002 108.93399999999998 185.17000000000002 108.64199999999998 185.32300000000004 C 107.61099999999998 185.86500000000004 106.57199999999999 186.39100000000005 105.53599999999999 186.92400000000004 C 105.09199999999998 187.15200000000004 104.63099999999999 187.35400000000004 104.21099999999998 187.61900000000003 C 103.86899999999999 187.83500000000004 103.67899999999999 188.17900000000003 103.71799999999999 188.69300000000004 C 103.81799999999998 189.09800000000004 103.901 189.59400000000005 104.06299999999999 190.06400000000005 C 104.695 191.89900000000006 105.35499999999999 193.72400000000005 105.99799999999999 195.55600000000004 C 109.178 204.61000000000004 112.38 213.65700000000004 115.083 222.86900000000003 L 115.984 222.86900000000003 C 115.94999999999999 222.74500000000003 115.91499999999999 222.622 115.884 222.497 C 115.204 219.747 114.256 217.08100000000002 113.354 214.4 C 110.876 207.04 108.494 199.647 105.713 192.392 C 105.416 191.617 105.204 190.809 104.942 190.01999999999998 C 104.28399999999999 188.039 104.78699999999999 188.243 106.00399999999999 187.636 C 109.92999999999999 185.678 113.77499999999999 183.576 117.535 181.316 C 118.056 181.00300000000001 118.556 180.65200000000002 119.05199999999999 180.299 C 119.198 180.195 119.198 180.00900000000001 119.07 179.875 C 119 179.801 118.878 179.727 118.785 179.734 C 118.32 179.768 117.98299999999999 180.084 117.6 180.303 C 115.288 181.625 112.979 182.954 110.657 184.258 C 110.078 184.583 109.88799999999999 184.556 109.49199999999999 184.101 C 107.963 182.342 106.246 180.749 104.859 178.864 C 103.896 177.556 103.892 177.559 105.056 176.512 C 105.469 176.141 105.902 175.788 106.286 175.389 C 107.061 174.583 108.001 173.985 108.857 173.282 C 108.983 173.179 109.004 172.98700000000002 108.904 172.834 C 108.801 172.678 108.627 172.635 108.47099999999999 172.709 C 107.76299999999999 173.044 107.13499999999999 173.499 106.55599999999998 174.023 C 105.73299999999999 174.768 104.95199999999998 175.567 104.07999999999998 176.249 C 102.70799999999998 177.322 102.98599999999999 177.584 103.72099999999999 178.69299999999998 C 104.149 179.341 104.633 179.956 105.142 180.542 z" stroke-linecap="round" />
</g>
<g transform="matrix(5.71 0 0 5.71 540.41 848.35)"  >
<path style="stroke: none; stroke-width: 1; stroke-dasharray: none; stroke-linecap: butt; stroke-dashoffset: 0; stroke-linejoin: miter; stroke-miterlimit: 4; fill: rgb(32,47,67); fill-rule: nonzero; opacity: 1;" vector-effect="non-scaling-stroke"  transform=" translate(-144.72, -188.64)" d="M 159.316 187.921 C 161.243 187.309 162.935 186.255 164.58 185.114 C 165.35500000000002 184.577 165.972 184.413 165.988 184.72 C 166.02 185.344 165.459 185.523 165.076 185.802 C 163.953 186.62 162.781 187.35999999999999 161.516 187.94799999999998 C 159.201 189.02399999999997 156.91199999999998 190.15099999999998 154.465 190.92 C 152.497 191.53799999999998 150.478 191.905 148.447 192.194 C 144.866 192.70399999999998 141.26500000000001 192.86399999999998 137.65200000000002 192.57199999999997 C 133.24 192.21499999999997 129.02 191.11399999999998 124.97800000000001 189.31599999999997 C 124.47000000000001 189.08999999999997 123.953 188.87599999999998 123.55000000000001 188.48299999999998 C 123.46100000000001 188.396 123.41400000000002 188.14699999999996 123.47400000000002 188.05799999999996 C 123.54500000000002 187.95499999999996 123.78700000000002 187.86499999999995 123.89700000000002 187.90999999999997 C 124.46100000000001 188.13999999999996 124.99600000000002 188.43899999999996 125.56000000000002 188.66899999999995 C 126.43200000000002 189.02599999999995 127.31700000000002 189.35299999999995 128.20200000000003 189.67999999999995 C 128.44400000000002 189.76899999999995 128.60500000000002 189.67399999999995 128.69100000000003 189.40899999999996 C 128.99700000000004 188.45899999999997 129.31900000000002 187.51399999999995 129.63500000000002 186.56799999999996 C 129.758 186.19999999999996 129.87600000000003 185.82899999999995 130.00900000000001 185.46499999999995 C 130.09300000000002 185.23399999999995 130.294 185.06899999999996 130.51600000000002 185.15299999999993 C 130.73200000000003 185.23399999999992 130.76500000000001 185.49699999999993 130.72400000000002 185.72499999999994 C 130.68500000000003 185.94299999999993 130.64200000000002 186.16199999999995 130.574 186.37199999999993 C 130.251 187.37499999999991 129.92800000000003 188.37799999999993 129.58700000000002 189.37599999999992 C 129.36100000000002 190.03699999999992 129.346 190.03899999999993 130.03600000000003 190.2789999999999 C 131.72000000000003 190.86399999999992 133.46100000000004 191.2189999999999 135.22100000000003 191.45999999999992 C 138.86600000000004 191.9579999999999 142.51100000000002 192.04999999999993 146.17900000000003 191.5999999999999 C 149.10500000000002 191.2409999999999 152.01100000000002 190.8439999999999 154.81700000000004 189.9029999999999 C 156.39200000000002 189.3739999999999 157.92400000000004 188.7479999999999 159.35300000000004 187.8889999999999 L 159.316 187.921 z" stroke-linecap="round" />
</g>
<g transform="matrix(5.71 0 0 5.71 541.26 807.16)"  >
<path style="stroke: none; stroke-width: 1; stroke-dasharray: none; stroke-linecap: butt; stroke-dashoffset: 0; stroke-linejoin: miter; stroke-miterlimit: 4; fill: rgb(32,47,67); fill-rule: nonzero; opacity: 1;" vector-effect="non-scaling-stroke"  transform=" translate(-144.87, -181.42)" d="M 141.972 185.532 C 136.602 185.50300000000001 131.399 184.55100000000002 126.39800000000001 182.568 C 125.26400000000001 182.11800000000002 124.15 181.619 123.14000000000001 180.92100000000002 C 122.82400000000001 180.70200000000003 122.47400000000002 180.50100000000003 122.32600000000002 180.115 C 122.26700000000002 179.96200000000002 122.25500000000002 179.776 122.42900000000002 179.67600000000002 C 122.51200000000001 179.62800000000001 122.65900000000002 179.592 122.72600000000001 179.633 C 123.43500000000002 180.062 124.10800000000002 180.56 124.84200000000001 180.94 C 126.918 182.016 129.13400000000001 182.715 131.388 183.323 C 134.671 184.209 138.018 184.633 141.4 184.781 C 144.357 184.91 147.243 184.324 150.127 183.745 C 155.559 182.655 160.595 180.52100000000002 165.482 177.984 C 165.971 177.73000000000002 166.47 177.49 166.981 177.286 C 167.079 177.247 167.29399999999998 177.372 167.386 177.48 C 167.499 177.612 167.446 177.809 167.309 177.91299999999998 C 167.09 178.07999999999998 166.855 178.23199999999997 166.60999999999999 178.35699999999997 C 162.464 180.48099999999997 158.29399999999998 182.54099999999997 153.753 183.72599999999997 C 150.748 184.50999999999996 147.719 185.17099999999996 144.63199999999998 185.51599999999996 C 143.754 185.615 142.858 185.532 141.972 185.532 z" stroke-linecap="round" />
</g>
<g transform="matrix(5.71 0 0 5.71 436.32 832.62)"  >
<path style="stroke: none; stroke-width: 1; stroke-dasharray: none; stroke-linecap: butt; stroke-dashoffset: 0; stroke-linejoin: miter; stroke-miterlimit: 4; fill: rgb(32,47,67); fill-rule: nonzero; opacity: 1;" vector-effect="non-scaling-stroke"  transform=" translate(-126.47, -185.88)" d="M 125.562 188.057 C 125.514 187.95999999999998 125.359 187.798 125.39 187.689 C 125.769 186.369 126.228 185.076 126.904 183.874 C 126.975 183.74699999999999 127.143 183.595 127.314 183.71699999999998 C 127.431 183.801 127.591 184.005 127.559 184.08999999999997 C 127.068 185.37099999999998 126.554 186.64399999999998 126.02799999999999 187.91099999999997 C 125.97 188.049 125.808 188.155 125.562 188.057 z" stroke-linecap="round" />
</g>
<g transform="matrix(5.71 0 0 5.71 595.32 836.86)"  >
<path style="stroke: none; stroke-width: 1; stroke-dasharray: none; stroke-linecap: butt; stroke-dashoffset: 0; stroke-linejoin: miter; stroke-miterlimit: 4; fill: rgb(32,47,67); fill-rule: nonzero; opacity: 1;" vector-effect="non-scaling-stroke"  transform=" translate(-154.34, -186.63)" d="M 155.058 188.475 C 155.047 188.66899999999998 154.94 188.837 154.797 188.85999999999999 C 154.665 188.88099999999997 154.442 188.795 154.378 188.68599999999998 C 154.23999999999998 188.45199999999997 154.14 188.18099999999998 154.094 187.91299999999998 C 153.918 186.879 153.761 185.843 153.624 184.80299999999997 C 153.607 184.67499999999998 153.736 184.42899999999997 153.838 184.40399999999997 C 154.06799999999998 184.34599999999998 154.269 184.49499999999998 154.319 184.73899999999998 C 154.573 185.983 154.813 187.23 155.058 188.475 z" stroke-linecap="round" />
</g>
<g transform="matrix(5.71 0 0 5.71 619.06 831.05)"  >
<path style="stroke: none; stroke-width: 1; stroke-dasharray: none; stroke-linecap: butt; stroke-dashoffset: 0; stroke-linejoin: miter; stroke-miterlimit: 4; fill: rgb(32,47,67); fill-rule: nonzero; opacity: 1;" vector-effect="non-scaling-stroke"  transform=" translate(-158.5, -185.61)" d="M 159.352 187.89 C 158.999 187.83999999999997 158.699 187.66899999999998 158.602 187.32999999999998 C 158.254 186.11899999999997 157.93200000000002 184.89999999999998 157.626 183.678 C 157.59900000000002 183.569 157.738 183.328 157.84 183.301 C 157.958 183.26999999999998 158.214 183.37599999999998 158.249 183.47799999999998 C 158.53199999999998 184.308 158.808 185.14399999999998 159.025 185.99299999999997 C 159.186 186.62099999999995 159.517 187.23499999999996 159.316 187.92199999999997 L 159.352 187.89 z" stroke-linecap="round" />
</g>
<g transform="matrix(5.71 0 0 5.71 479.67 845.19)"  >
<path style="stroke: none; stroke-width: 1; stroke-dasharray: none; stroke-linecap: butt; stroke-dashoffset: 0; stroke-linejoin: miter; stroke-miterlimit: 4; fill: rgb(32,47,67); fill-rule: nonzero; opacity: 1;" vector-effect="non-scaling-stroke"  transform=" translate(-134.07, -188.09)" d="M 133.272 189.365 C 133.569 188.327 133.863 187.261 134.189 186.205 C 134.22199999999998 186.097 134.44799999999998 185.972 134.571 185.984 C 134.841 186.011 134.907 186.256 134.857 186.48100000000002 C 134.589 187.67100000000002 134.308 188.85700000000003 134.016 190.04100000000003 C 133.999 190.11100000000002 133.85 190.19200000000004 133.76399999999998 190.19000000000003 C 133.67199999999997 190.18800000000002 133.539 190.11400000000003 133.49999999999997 190.03400000000002 C 133.407 189.842 133.358 189.628 133.272 189.365 z" stroke-linecap="round" />
</g>
<g transform="matrix(5.71 0 0 5.71 572.38 841.93)"  >
<path style="stroke: none; stroke-width: 1; stroke-dasharray: none; stroke-linecap: butt; stroke-dashoffset: 0; stroke-linejoin: miter; stroke-miterlimit: 4; fill: rgb(32,47,67); fill-rule: nonzero; opacity: 1;" vector-effect="non-scaling-stroke"  transform=" translate(-150.32, -187.52)" d="M 149.695 185.862 C 149.804 185.74099999999999 149.886 185.584 150.01399999999998 185.519 C 150.31099999999998 185.369 150.44199999999998 185.653 150.47099999999998 185.829 C 150.65399999999997 186.967 150.80799999999996 188.11 150.94499999999996 189.255 C 150.95999999999995 189.384 150.84699999999995 189.583 150.63299999999995 189.553 C 150.53499999999994 189.539 150.41399999999996 189.495 150.35799999999995 189.422 C 150.25999999999993 189.295 150.15999999999994 189.142 150.13699999999994 188.989 C 149.98 187.957 149.843 186.921 149.695 185.862 z" stroke-linecap="round" />
</g>
<g transform="matrix(5.71 0 0 5.71 501.19 847.63)"  >
<path style="stroke: none; stroke-width: 1; stroke-dasharray: none; stroke-linecap: butt; stroke-dashoffset: 0; stroke-linejoin: miter; stroke-miterlimit: 4; fill: rgb(32,47,67); fill-rule: nonzero; opacity: 1;" vector-effect="non-scaling-stroke"  transform=" translate(-137.84, -188.52)" d="M 138.431 187.382 C 138.30700000000002 188.181 138.139 189.321 137.946 190.45600000000002 C 137.922 190.59900000000002 137.796 190.75300000000001 137.59199999999998 190.72600000000003 C 137.404 190.70200000000003 137.32799999999997 190.55700000000002 137.295 190.40000000000003 C 137.261 190.24100000000004 137.232 190.07000000000002 137.254 189.91100000000003 C 137.404 188.82400000000004 137.56199999999998 187.73700000000002 137.73399999999998 186.65300000000002 C 137.771 186.418 137.96499999999997 186.252 138.19899999999998 186.31400000000002 C 138.30399999999997 186.342 138.374 186.56300000000002 138.42499999999998 186.70900000000003 C 138.459 186.808 138.431 186.927 138.431 187.382 z" stroke-linecap="round" />
</g>
<g transform="matrix(5.71 0 0 5.71 546.26 845.92)"  >
<path style="stroke: none; stroke-width: 1; stroke-dasharray: none; stroke-linecap: butt; stroke-dashoffset: 0; stroke-linejoin: miter; stroke-miterlimit: 4; fill: rgb(32,47,67); fill-rule: nonzero; opacity: 1;" vector-effect="non-scaling-stroke"  transform=" translate(-145.74, -188.22)" d="M 145.292 188.05 C 145.323 187.411 145.157 186.96800000000002 145.337 186.54000000000002 C 145.37099999999998 186.46 145.48299999999998 186.371 145.564 186.365 C 145.653 186.359 145.795 186.42100000000002 145.832 186.495 C 145.928 186.686 146.01999999999998 186.89600000000002 146.041 187.10500000000002 C 146.12199999999999 187.92900000000003 146.185 188.75500000000002 146.232 189.58100000000002 C 146.245 189.80300000000003 146.162 190.04500000000002 145.89 190.06500000000003 C 145.63299999999998 190.08300000000003 145.49099999999999 189.85500000000002 145.46099999999998 189.65500000000003 C 145.372 189.058 145.331 188.453 145.292 188.05 z" stroke-linecap="round" />
</g>
<g transform="matrix(5.71 0 0 5.71 525.07 849.25)"  >
<path style="stroke: none; stroke-width: 1; stroke-dasharray: none; stroke-linecap: butt; stroke-dashoffset: 0; stroke-linejoin: miter; stroke-miterlimit: 4; fill: rgb(32,47,67); fill-rule: nonzero; opacity: 1;" vector-effect="non-scaling-stroke"  transform=" translate(-142.03, -188.8)" d="M 142.397 188.841 C 142.352 189.443 142.313 190.04600000000002 142.25199999999998 190.64700000000002 C 142.24499999999998 190.711 142.10899999999998 190.77800000000002 142.021 190.81400000000002 C 141.897 190.86400000000003 141.801 190.80700000000002 141.753 190.68000000000004 C 141.696 190.52800000000005 141.59199999999998 190.37400000000002 141.595 190.22200000000004 C 141.617 189.22700000000003 141.654 188.23200000000003 141.708 187.23900000000003 C 141.72 187.02200000000002 141.82 186.77800000000002 142.081 186.76600000000002 C 142.493 186.747 142.43599999999998 187.10600000000002 142.44799999999998 187.347 C 142.474 187.84300000000002 142.456 188.341 142.456 188.839 C 142.437 188.84 142.417 188.841 142.397 188.841 z" stroke-linecap="round" />
</g>
<g transform="matrix(5.71 0 0 5.71 644.01 818.36)"  >
<path style="stroke: none; stroke-width: 1; stroke-dasharray: none; stroke-linecap: butt; stroke-dashoffset: 0; stroke-linejoin: miter; stroke-miterlimit: 4; fill: rgb(32,47,67); fill-rule: nonzero; opacity: 1;" vector-effect="non-scaling-stroke"  transform=" translate(-162.87, -183.38)" d="M 162.38 181.597 C 162.543 181.52200000000002 162.708 181.639 162.769 181.768 C 163.246 182.768 163.52700000000002 183.825 163.61 184.931 C 163.616 185.008 163.502 185.131 163.41600000000003 185.169 C 163.24400000000003 185.246 163.056 185.14800000000002 162.99900000000002 185.00900000000001 C 162.58 183.98800000000003 162.30800000000002 182.923 162.14000000000001 181.83300000000003 C 162.131 181.774 162.282 181.69 162.38 181.597 z" stroke-linecap="round" />
</g>
<g transform="matrix(5.71 0 0 5.71 622.6 318.59)"  >
<path style="stroke: none; stroke-width: 1; stroke-dasharray: none; stroke-linecap: butt; stroke-dashoffset: 0; stroke-linejoin: miter; stroke-miterlimit: 4; fill: rgb(32,47,67); fill-rule: nonzero; opacity: 1;" vector-effect="non-scaling-stroke"  transform=" translate(-159.12, -95.8)" d="M 160.214 90.802 C 161.494 90.756 162.759 90.86800000000001 163.984 91.26100000000001 C 165.673 91.80400000000002 166.84900000000002 92.879 167.407 94.593 C 167.952 96.266 167.507 97.802 166.119 98.882 C 165.505 99.36 164.823 99.724 164.082 99.97800000000001 C 160.94899999999998 101.052 157.785 101.016 154.608 100.22900000000001 C 153.8 100.02900000000001 153.06 99.64100000000002 152.356 99.19100000000002 C 150.323 97.89100000000002 149.908 94.90700000000001 151.956 93.24000000000002 C 152.69299999999998 92.64000000000003 153.481 92.14800000000002 154.369 91.80700000000002 C 156.252 91.086 158.195 90.725 160.214 90.802 z M 166.773 95.845 C 166.621 94.104 165.614 92.538 163.436 92.01 C 163.21 91.955 163.00900000000001 92.17500000000001 163.086 92.40700000000001 C 163.20700000000002 92.77400000000002 163.359 93.13100000000001 163.476 93.49900000000001 C 163.862 94.718 164.111 95.962 163.984 97.24700000000001 C 163.935 97.73900000000002 163.799 98.22100000000002 163.72400000000002 98.71100000000001 C 163.68400000000003 98.97300000000001 163.81400000000002 99.14900000000002 164.09000000000003 99.05100000000002 C 164.82800000000003 98.78800000000001 165.48600000000002 98.38200000000002 166.02400000000003 97.80800000000002 C 166.537 97.26 166.771 96.594 166.773 95.845 z M 151.447 96.159 C 151.555 97.24900000000001 152.136 98.13000000000001 153.206 98.674 C 153.34199999999998 98.74300000000001 153.516 98.73700000000001 153.673 98.766 C 153.7 98.614 153.769 98.455 153.748 98.31 C 153.539 96.875 153.51299999999998 95.45700000000001 153.952 94.046 C 154.052 93.72500000000001 154.493 93.31400000000001 154.048 93.02900000000001 C 153.797 92.86900000000001 153.451 93.224 153.176 93.39800000000001 C 152.706 93.69500000000001 152.28799999999998 94.05700000000002 151.96099999999998 94.51100000000001 C 151.629 94.97 151.432 95.478 151.447 96.159 z" stroke-linecap="round" />
</g>
<g transform="matrix(5.71 0 0 5.71 446.2 318.59)"  >
<path style="stroke: none; stroke-width: 1; stroke-dasharray: none; stroke-linecap: butt; stroke-dashoffset: 0; stroke-linejoin: miter; stroke-miterlimit: 4; fill: rgb(32,47,67); fill-rule: nonzero; opacity: 1;" vector-effect="non-scaling-stroke"  transform=" translate(-128.21, -95.8)" d="M 127.175 90.802 C 129.207 90.72600000000001 131.147 91.10400000000001 133.027 91.83200000000001 C 133.96699999999998 92.19600000000001 134.79299999999998 92.73200000000001 135.54899999999998 93.4 C 137.32999999999998 94.973 136.93399999999997 97.69800000000001 135.32299999999998 98.935 C 134.242 99.765 133.01 100.286 131.69899999999998 100.498 C 129.117 100.91600000000001 126.52399999999999 100.976 123.97299999999998 100.22500000000001 C 123.01199999999999 99.94200000000001 122.09799999999998 99.554 121.29299999999998 98.94200000000001 C 119.81899999999997 97.822 119.34999999999998 96.271 119.94499999999998 94.53 C 120.52699999999997 92.82600000000001 121.71499999999997 91.766 123.41299999999998 91.243 C 124.643 90.863 125.906 90.755 127.175 90.802 z M 131.893 99.479 C 133.065 99.304 133.952 98.882 134.734 98.273 C 136.179 97.148 136.27200000000002 95.37299999999999 134.99200000000002 94.073 C 134.48000000000002 93.553 133.872 93.16799999999999 133.20900000000003 92.872 C 133.01600000000002 92.786 132.74800000000002 92.661 132.60000000000002 92.732 C 132.37600000000003 92.839 132.51800000000003 93.106 132.55900000000003 93.321 C 132.78400000000002 94.514 133.03200000000004 95.688 132.82600000000002 96.938 C 132.683 97.811 132.243 98.558 131.893 99.479 z M 120.559 95.98 C 120.592 97.23 121.605 98.476 122.90899999999999 98.87 C 123.17399999999999 98.95 123.38399999999999 98.676 123.261 98.325 C 122.564 96.334 122.77499999999999 94.429 123.759 92.58800000000001 C 123.837 92.441 123.927 92.27900000000001 123.74 92.16300000000001 C 123.666 92.117 123.532 92.13600000000001 123.43599999999999 92.16400000000002 C 121.374 92.77 120.58 94.652 120.559 95.98 z" stroke-linecap="round" />
</g>
<g transform="matrix(5.71 0 0 5.71 633.22 253.38)"  >
<path style="stroke: none; stroke-width: 1; stroke-dasharray: none; stroke-linecap: butt; stroke-dashoffset: 0; stroke-linejoin: miter; stroke-miterlimit: 4; fill: rgb(32,47,67); fill-rule: nonzero; opacity: 1;" vector-effect="non-scaling-stroke"  transform=" translate(-160.98, -84.37)" d="M 160.597 87.312 C 158.71900000000002 87.238 156.841 87.175 154.964 87.086 C 154.032 87.042 153.824 86.90899999999999 153.769 86.066 C 153.679 84.68900000000001 153.671 83.306 153.675 81.925 C 153.67700000000002 81.39099999999999 154.04100000000003 81.146 154.584 81.25399999999999 C 155.01500000000001 81.33999999999999 155.442 81.46699999999998 155.856 81.61599999999999 C 159.089 82.77899999999998 162.44899999999998 83.45699999999998 165.787 84.22099999999999 C 166.37900000000002 84.35699999999999 166.983 84.44999999999999 167.564 84.62199999999999 C 168.248 84.82499999999999 168.43099999999998 85.23599999999999 168.191 85.88599999999998 C 168.115 86.09299999999998 168.016 86.29199999999999 167.929 86.49499999999998 C 167.608 87.24499999999998 167.074 87.61899999999997 166.231 87.48499999999997 C 164.363 87.188 162.472 87.455 160.597 87.312 z" stroke-linecap="round" />
</g>
<g transform="matrix(5.71 0 0 5.71 437.73 262.57)"  >
<path style="stroke: none; stroke-width: 1; stroke-dasharray: none; stroke-linecap: butt; stroke-dashoffset: 0; stroke-linejoin: miter; stroke-miterlimit: 4; fill: rgb(32,47,67); fill-rule: nonzero; opacity: 1;" vector-effect="non-scaling-stroke"  transform=" translate(-126.72, -85.98)" d="M 133.331 85.957 C 133.331 86.54799999999999 133.35199999999998 86.77199999999999 133.327 86.99 C 133.24099999999999 87.735 132.921 88.08399999999999 132.202 88.21199999999999 C 131.931 88.25999999999999 131.651 88.267 131.375 88.28499999999998 C 128.947 88.44099999999999 126.516 88.56399999999998 124.105 88.90999999999998 C 123.06700000000001 89.05899999999998 122.03200000000001 89.22799999999998 120.998 89.39999999999998 C 120.599 89.46599999999998 120.346 89.28199999999998 120.244 88.93499999999997 C 120.07 88.34399999999998 120.08 87.73199999999997 120.172 87.12699999999997 C 120.215 86.84499999999997 120.358 86.60799999999996 120.624 86.46899999999997 C 120.771 86.39199999999997 120.916 86.30799999999996 121.071 86.25199999999997 C 124.086 85.15899999999996 127.03 83.87099999999997 130.103 82.93899999999996 C 130.681 82.76399999999997 131.251 82.52899999999997 131.87800000000001 82.54999999999997 C 132.479 82.56999999999996 132.85000000000002 82.79099999999997 132.955 83.37099999999997 C 133.134 84.348 133.244 85.337 133.331 85.957 z" stroke-linecap="round" />
</g>
<g transform="matrix(5.71 0 0 5.71 541.83 370.66)"  >
<path style="stroke: none; stroke-width: 1; stroke-dasharray: none; stroke-linecap: butt; stroke-dashoffset: 0; stroke-linejoin: miter; stroke-miterlimit: 4; fill: rgb(32,47,67); fill-rule: nonzero; opacity: 1;" vector-effect="non-scaling-stroke"  transform=" translate(-144.97, -104.92)" d="M 144.742 115.915 C 145.797 115.915 146.852 115.91900000000001 147.90699999999998 115.91300000000001 C 148.408 115.91000000000001 148.89899999999997 115.861 149.36899999999997 115.64900000000002 C 150.04699999999997 115.34400000000001 150.41099999999997 114.86300000000001 150.39299999999997 114.09800000000001 C 150.35899999999998 112.59300000000002 150.12599999999998 111.11100000000002 149.83699999999996 109.64300000000001 C 149.19399999999996 106.37900000000002 148.47999999999996 103.12900000000002 147.81899999999996 99.86900000000001 C 147.43399999999997 97.96700000000001 147.09399999999997 96.05600000000001 146.74099999999996 94.14800000000001 C 146.70099999999996 93.93200000000002 146.68599999999995 93.70600000000002 146.70299999999995 93.48800000000001 C 146.71999999999994 93.26400000000001 146.80599999999995 93.03200000000001 147.07699999999994 93.02600000000001 C 147.23999999999995 93.022 147.36199999999994 93.15700000000001 147.40599999999995 93.33300000000001 C 147.47299999999996 93.60200000000002 147.57199999999995 93.86600000000001 147.61099999999996 94.13900000000001 C 148.14999999999995 97.93200000000002 149.09699999999995 101.64300000000001 149.86999999999995 105.38900000000001 C 150.43099999999995 108.10400000000001 150.93899999999994 110.82900000000001 151.26299999999995 113.58500000000001 C 151.44399999999996 115.13100000000001 150.78499999999994 116.13400000000001 149.27099999999996 116.58300000000001 C 148.19099999999995 116.903 147.07899999999995 116.91600000000001 145.96699999999996 116.86500000000001 C 144.35999999999996 116.79100000000001 142.75399999999996 116.64500000000001 141.14699999999996 116.61900000000001 C 139.90199999999996 116.59900000000002 139.40699999999995 116.19700000000002 139.00699999999998 114.94100000000002 C 138.82299999999998 114.36500000000002 138.71899999999997 113.74800000000002 138.68899999999996 113.14400000000002 C 138.60799999999998 111.53600000000002 138.61399999999998 109.93100000000003 138.79899999999998 108.32300000000002 C 138.99499999999998 106.61500000000002 139.08499999999998 104.89600000000002 139.23199999999997 103.18200000000002 C 139.50299999999996 100.03200000000001 139.85699999999997 96.88800000000002 139.90799999999996 93.72200000000001 C 139.91099999999994 93.557 139.91899999999995 93.37800000000001 139.98399999999995 93.233 C 140.04299999999995 93.102 140.12399999999994 92.884 140.33699999999996 92.983 C 140.46699999999996 93.04400000000001 140.61399999999995 93.17 140.65499999999997 93.298 C 140.71999999999997 93.504 140.71699999999998 93.735 140.71799999999996 93.956 C 140.72999999999996 96.62400000000001 140.48099999999997 99.273 140.19099999999997 101.922 C 140.01599999999996 103.521 139.90399999999997 105.12599999999999 139.76899999999998 106.729 C 139.66699999999997 107.945 139.58899999999997 109.163 139.47299999999998 110.378 C 139.345 111.72 139.505 113.046 139.73899999999998 114.354 C 139.938 115.467 140.37199999999999 115.829 141.41299999999998 115.804 C 142.522 115.777 143.63199999999998 115.798 144.742 115.798 C 144.742 115.836 144.742 115.876 144.742 115.915 z" stroke-linecap="round" />
</g>
<g transform="matrix(5.71 0 0 5.71 333.59 361.78)"  >
<path style="stroke: none; stroke-width: 1; stroke-dasharray: none; stroke-linecap: butt; stroke-dashoffset: 0; stroke-linejoin: miter; stroke-miterlimit: 4; fill: rgb(32,47,67); fill-rule: nonzero; opacity: 1;" vector-effect="non-scaling-stroke"  transform=" translate(-108.47, -103.37)" d="M 110.899 98.163 C 111.015 98.27 111.166 98.353 111.23 98.479 C 111.318 98.653 111.184 98.822 111.042 98.884 C 110.635 99.059 110.205 99.177 109.796 99.348 C 107.96700000000001 100.113 106.525 101.976 106.638 104.188 C 106.69900000000001 105.37100000000001 107.12700000000001 106.334 107.965 107.136 C 108.164 107.327 108.407 107.47099999999999 108.62 107.648 C 109.01100000000001 107.97399999999999 109.11800000000001 108.282 108.91600000000001 108.45 C 108.64500000000001 108.675 108.39000000000001 108.543 108.15800000000002 108.398 C 106.39200000000001 107.297 105.54300000000002 105.65599999999999 105.70300000000002 103.62599999999999 C 105.93400000000001 100.69299999999998 107.99700000000001 98.85399999999998 110.21800000000002 98.24799999999999 C 110.429 98.191 110.654 98.192 110.899 98.163 z" stroke-linecap="round" />
</g>
<g transform="matrix(5.71 0 0 5.71 744.74 361.84)"  >
<path style="stroke: none; stroke-width: 1; stroke-dasharray: none; stroke-linecap: butt; stroke-dashoffset: 0; stroke-linejoin: miter; stroke-miterlimit: 4; fill: rgb(32,47,67); fill-rule: nonzero; opacity: 1;" vector-effect="non-scaling-stroke"  transform=" translate(-180.53, -103.38)" d="M 182.348 104.016 C 182.46800000000002 102.203 181.24800000000002 100.19900000000001 179.185 99.339 C 178.776 99.169 178.345 99.051 177.941 98.872 C 177.804 98.81099999999999 177.674 98.623 177.774 98.459 C 177.847 98.339 178.01500000000001 98.212 178.14600000000002 98.206 C 178.417 98.193 178.70100000000002 98.224 178.96300000000002 98.299 C 181.27 98.96100000000001 183.109 101.08900000000001 183.29700000000003 103.48 C 183.46200000000002 105.57900000000001 182.65300000000002 107.271 180.824 108.40700000000001 C 180.68900000000002 108.49100000000001 180.518 108.534 180.359 108.55000000000001 C 180.268 108.55900000000001 180.14000000000001 108.501 180.07600000000002 108.43 C 179.95900000000003 108.301 179.92600000000002 108.11600000000001 180.05500000000004 107.98700000000001 C 180.28800000000004 107.75500000000001 180.54700000000003 107.549 180.80000000000004 107.33900000000001 C 181.846 106.471 182.404 105.378 182.348 104.016 z" stroke-linecap="round" />
</g>
<g transform="matrix(5.71 0 0 5.71 539.3 500.74)"  >
<path style="stroke: none; stroke-width: 1; stroke-dasharray: none; stroke-linecap: butt; stroke-dashoffset: 0; stroke-linejoin: miter; stroke-miterlimit: 4; fill: rgb(32,47,67); fill-rule: nonzero; opacity: 1;" vector-effect="non-scaling-stroke"  transform=" translate(-144.52, -127.72)" d="M 142.72 129.21 C 141.308 129.053 139.757 128.976 138.255 128.55700000000002 C 137.93699999999998 128.46800000000002 137.626 128.34400000000002 137.326 128.204 C 137.114 128.10500000000002 136.98399999999998 127.89000000000001 137.095 127.673 C 137.151 127.56400000000001 137.371 127.483 137.513 127.488 C 137.728 127.497 137.94 127.593 138.153 127.651 C 142.195 128.745 146.147 128.477 150.01 126.865 C 150.51999999999998 126.652 151.024 126.422 151.545 126.241 C 151.66 126.201 151.899 126.296 151.96599999999998 126.401 C 152.02599999999998 126.49499999999999 151.96699999999998 126.719 151.88699999999997 126.833 C 151.79799999999997 126.959 151.63299999999998 127.03999999999999 151.48799999999997 127.114 C 148.772 128.486 145.869 129.093 142.72 129.21 z" stroke-linecap="round" />
</g>
<g transform="matrix(5.71 0 0 5.71 540.1 519.89)"  >
<path style="stroke: none; stroke-width: 1; stroke-dasharray: none; stroke-linecap: butt; stroke-dashoffset: 0; stroke-linejoin: miter; stroke-miterlimit: 4; fill: rgb(32,47,67); fill-rule: nonzero; opacity: 1;" vector-effect="non-scaling-stroke"  transform=" translate(-144.66, -131.08)" d="M 142.695 131.951 C 142.093 131.868 141.34799999999998 132.047 140.691 131.653 C 140.561 131.575 140.399 131.469 140.486 131.26399999999998 C 140.553 131.10699999999997 140.664 130.987 140.851 130.98499999999999 C 140.96 130.98399999999998 141.071 130.98999999999998 141.178 131.011 C 142.847 131.339 144.47899999999998 131.063 146.106 130.716 C 146.754 130.578 147.39499999999998 130.406 148.04399999999998 130.274 C 148.34699999999998 130.212 148.77499999999998 130.064 148.855 130.512 C 148.93099999999998 130.935 148.482 131.01 148.179 131.081 C 146.407 131.498 144.644 131.986 142.695 131.951 z" stroke-linecap="round" />
</g>
<g transform="matrix(NaN NaN NaN NaN 0 0)"  >
<g style=""   >
</g>
</g>
<g transform="matrix(NaN NaN NaN NaN 0 0)"  >
<g style=""   >
</g>
</g>
</svg>