<svg width="347" height="359" viewBox="0 0 347 359" fill="none" xmlns="http://www.w3.org/2000/svg">
<path d="M237.09 230.711L344.863 230.882L344.869 226.604L237.096 226.433L237.09 230.711Z" stroke="#263238" stroke-linecap="round" stroke-linejoin="round"/>
<path d="M241.906 346.436L339.68 346.591L339.863 230.999L242.089 230.844L241.906 346.436Z" stroke="#263238" stroke-linecap="round" stroke-linejoin="round"/>
<path d="M245.563 261.311L336.418 261.455L336.457 236.376L245.603 236.232L245.563 261.311Z" stroke="#263238" stroke-linecap="round" stroke-linejoin="round"/>
<path d="M286.616 251.139L295.7 251.153L295.707 246.533L286.624 246.519L286.616 251.139Z" fill="#263238" stroke="#263238" stroke-linecap="round" stroke-linejoin="round"/>
<path d="M245.513 292.994L336.367 293.138L336.407 268.059L245.553 267.915L245.513 292.994Z" stroke="#263238" stroke-linecap="round" stroke-linejoin="round"/>
<path d="M286.566 282.83L295.649 282.844L295.657 278.224L286.573 278.209L286.566 282.83Z" fill="#263238" stroke="#263238" stroke-linecap="round" stroke-linejoin="round"/>
<path d="M245.462 324.817L336.317 324.961L336.357 299.882L245.502 299.738L245.462 324.817Z" stroke="#263238" stroke-linecap="round" stroke-linejoin="round"/>
<path d="M286.516 314.653L295.599 314.667L295.606 310.047L286.523 310.032L286.516 314.653Z" fill="#263238" stroke="#263238" stroke-linecap="round" stroke-linejoin="round"/>
<path d="M295.568 175.956C296.667 176.463 299.363 176.405 299.363 176.405C299.363 176.405 298.79 174.545 298.738 174.428C298.15 173.128 296.285 170.971 294.763 171.186C294.51 171.228 294.267 171.325 294.052 171.472C293.837 171.619 293.653 171.812 293.513 172.038C293.374 172.265 293.281 172.52 293.241 172.787C293.201 173.054 293.215 173.327 293.282 173.587C293.479 174.132 293.785 174.626 294.179 175.035C294.574 175.444 295.047 175.758 295.568 175.956Z" fill="#263238"/>
<path d="M322.794 176.621C322.794 176.621 323.285 174.74 323.3 174.615C323.494 173.184 323.063 170.305 321.683 169.595C321.45 169.485 321.197 169.427 320.941 169.427C320.685 169.426 320.432 169.483 320.198 169.593C319.964 169.703 319.755 169.863 319.585 170.064C319.414 170.265 319.285 170.501 319.207 170.758C319.083 171.325 319.078 171.914 319.19 172.483C319.303 173.053 319.531 173.59 319.859 174.057C320.515 175.101 322.787 176.621 322.794 176.621Z" fill="#263238"/>
<path d="M330.853 166.35C329.324 166.177 327.504 168.375 326.948 169.689C326.896 169.806 326.34 171.68 326.369 171.68C326.081 172.021 325.77 172.394 325.444 172.814C324.845 173.591 324.179 174.461 323.513 175.471C322.781 176.545 322.111 177.663 321.506 178.821C320.817 180.116 320.242 181.474 319.786 182.878C319.786 182.878 319.786 182.878 319.786 182.925C319.787 182.451 319.789 181.128 319.789 181.027C319.614 179.595 318.481 176.933 316.968 176.635C316.716 176.594 316.459 176.61 316.213 176.68C315.967 176.751 315.738 176.875 315.54 177.045C315.343 177.215 315.182 177.426 315.067 177.666C314.952 177.906 314.887 178.169 314.875 178.437C314.899 179.019 315.043 179.589 315.298 180.106C315.552 180.624 315.91 181.077 316.347 181.434C317.21 182.213 319.594 183.034 319.786 183.096C319.358 184.534 319.018 185.999 318.767 187.482C318.626 188.353 318.499 189.224 318.386 190.103C318.387 189.698 318.388 189.325 318.388 189.278C318.213 187.847 317.08 185.184 315.574 184.894C315.322 184.851 315.064 184.864 314.817 184.933C314.57 185.002 314.34 185.125 314.142 185.295C313.943 185.464 313.781 185.676 313.666 185.916C313.551 186.156 313.485 186.419 313.474 186.688C313.497 187.27 313.641 187.84 313.895 188.358C314.15 188.875 314.508 189.328 314.946 189.685C315.972 190.403 317.097 190.951 318.281 191.308C318.244 191.65 318.199 191.985 318.161 192.327C317.974 193.945 317.794 195.57 317.57 197.149C317.496 197.709 317.399 198.253 317.302 198.805C317.302 198.44 317.303 198.129 317.303 198.082C317.128 196.65 315.995 193.996 314.482 193.698C314.23 193.656 313.973 193.67 313.727 193.739C313.481 193.809 313.252 193.933 313.054 194.102C312.857 194.271 312.696 194.482 312.581 194.722C312.466 194.961 312.401 195.224 312.389 195.492C312.412 196.074 312.556 196.644 312.811 197.162C313.065 197.679 313.423 198.132 313.861 198.489C314.857 199.185 315.95 199.711 317.101 200.05C316.989 200.61 316.877 201.17 316.743 201.706C316.639 202.064 316.572 202.421 316.454 202.779C316.335 203.137 316.231 203.494 316.127 203.844C315.897 204.513 315.66 205.205 315.385 205.85C315.222 206.293 315.059 206.721 314.896 207.148C314.978 206.596 315.12 205.507 315.12 205.414C315.106 204.143 314.782 202.897 314.181 201.795C314.195 201.497 314.145 201.2 314.034 200.925C313.924 200.651 313.756 200.406 313.544 200.209C313.331 200.012 313.079 199.868 312.806 199.788C312.534 199.708 312.247 199.693 311.969 199.746C310.491 200.164 309.541 202.9 309.465 204.347C309.465 204.433 309.515 205.358 309.559 205.942C309.478 205.607 309.412 205.273 309.331 204.922C309.177 204.23 309.001 203.545 308.818 202.814C308.722 202.456 308.62 202.098 308.517 201.74C308.414 201.382 308.274 201.016 308.157 200.65C307.87 199.802 307.532 198.961 307.178 198.12C308.378 197.858 309.531 197.403 310.6 196.772C311.06 196.452 311.448 196.029 311.738 195.533C312.027 195.038 312.209 194.482 312.273 193.905C312.281 193.636 312.234 193.368 312.137 193.12C312.04 192.871 311.894 192.647 311.709 192.461C311.524 192.276 311.304 192.134 311.063 192.044C310.822 191.955 310.567 191.92 310.312 191.941C308.783 192.118 307.457 194.675 307.182 196.09C307.182 196.176 307.069 197.218 307.031 197.786C306.811 197.28 306.597 196.782 306.362 196.276C305.685 194.828 304.948 193.387 304.227 191.939C304.006 191.503 303.793 191.06 303.572 190.616C303.779 190.562 306.209 189.974 307.119 189.237C307.579 188.916 307.967 188.493 308.257 187.998C308.546 187.503 308.728 186.947 308.792 186.369C308.8 186.1 308.753 185.833 308.656 185.584C308.559 185.336 308.413 185.111 308.228 184.926C308.043 184.741 307.823 184.599 307.582 184.509C307.341 184.419 307.085 184.384 306.831 184.406C305.309 184.582 303.976 187.139 303.701 188.555C303.7 188.656 303.55 190.149 303.535 190.53C303.057 189.557 302.585 188.584 302.159 187.596C301.584 186.271 301.093 184.909 300.688 183.517C300.784 183.517 303.326 182.891 304.257 182.138C304.718 181.817 305.106 181.395 305.395 180.899C305.684 180.404 305.867 179.848 305.931 179.27C305.938 179.002 305.892 178.734 305.795 178.485C305.697 178.237 305.552 178.013 305.367 177.827C305.181 177.642 304.961 177.5 304.721 177.41C304.48 177.321 304.224 177.285 303.97 177.307C302.448 177.484 301.115 180.041 300.839 181.448C300.839 181.542 300.719 182.685 300.681 183.229L300.6 183.229C300.217 181.818 299.957 180.372 299.824 178.911C299.737 178.133 299.701 177.355 299.68 176.577C300.921 176.458 302.136 176.14 303.285 175.634C303.777 175.366 304.206 174.989 304.545 174.529C304.884 174.069 305.123 173.536 305.247 172.969C305.281 172.702 305.262 172.432 305.191 172.174C305.12 171.916 304.998 171.677 304.833 171.472C304.669 171.267 304.465 171.1 304.235 170.984C304.005 170.867 303.755 170.803 303.5 170.795C301.964 170.793 300.38 173.179 299.957 174.555C299.956 174.625 299.778 175.41 299.674 175.986C299.674 175.651 299.675 175.301 299.675 174.974C299.677 173.745 299.753 172.641 299.828 171.638C299.874 171.078 299.926 170.564 299.978 170.082C301.022 169.377 301.958 168.507 302.752 167.504C303.07 167.029 303.287 166.486 303.386 165.914C303.485 165.342 303.465 164.754 303.326 164.191C303.24 163.938 303.104 163.707 302.928 163.513C302.752 163.319 302.539 163.166 302.304 163.063C302.068 162.961 301.814 162.912 301.56 162.919C301.305 162.927 301.054 162.99 300.824 163.106C299.464 163.882 299.098 166.736 299.339 168.16C299.339 168.284 299.868 170.175 299.89 170.16C299.83 170.619 299.77 171.108 299.71 171.645C299.62 172.633 299.522 173.753 299.491 174.982C299.446 176.305 299.474 177.63 299.573 178.949C299.679 180.425 299.909 181.889 300.26 183.322L300.26 183.376C300.017 182.972 299.31 181.881 299.244 181.819C298.352 180.729 296.006 179.169 294.594 179.797C294.363 179.908 294.156 180.07 293.988 180.271C293.819 180.472 293.693 180.708 293.616 180.964C293.54 181.22 293.516 181.49 293.545 181.756C293.574 182.023 293.656 182.28 293.785 182.51C294.106 182.983 294.522 183.377 295.002 183.664C295.482 183.951 296.016 184.124 296.566 184.172C297.711 184.345 300.112 183.617 300.304 183.555C300.705 185.007 301.197 186.429 301.774 187.813C302.105 188.591 302.459 189.416 302.827 190.218L302.377 189.541C301.478 188.442 299.139 186.891 297.728 187.518C297.496 187.629 297.288 187.79 297.119 187.991C296.95 188.192 296.823 188.428 296.746 188.684C296.67 188.941 296.646 189.211 296.676 189.478C296.705 189.744 296.788 190.001 296.919 190.232C297.24 190.705 297.655 191.099 298.136 191.386C298.616 191.672 299.15 191.846 299.7 191.893C300.933 191.895 302.158 191.697 303.334 191.308C303.482 191.611 303.621 191.923 303.761 192.226C304.497 193.69 305.152 195.146 305.8 196.594C306.028 197.1 306.234 197.613 306.44 198.15C306.248 197.847 306.079 197.597 306.049 197.559C305.158 196.468 302.812 194.909 301.4 195.536C301.168 195.649 300.962 195.811 300.793 196.013C300.625 196.215 300.498 196.451 300.422 196.708C300.346 196.964 300.321 197.235 300.35 197.502C300.379 197.769 300.461 198.026 300.591 198.258C300.914 198.729 301.329 199.12 301.81 199.406C302.29 199.691 302.823 199.864 303.372 199.911C304.572 199.918 305.765 199.731 306.911 199.357C307.109 199.886 307.308 200.415 307.477 200.913C307.58 201.271 307.712 201.614 307.8 201.98L308.086 203.054C308.24 203.746 308.402 204.454 308.541 205.139C308.636 205.606 308.724 206.057 308.812 206.509C308.591 206.003 308.142 205.006 308.076 204.952C307.339 203.729 305.26 201.836 303.775 202.214C303.53 202.288 303.302 202.415 303.107 202.588C302.911 202.76 302.752 202.973 302.64 203.214C302.527 203.455 302.464 203.718 302.454 203.987C302.444 204.255 302.488 204.522 302.582 204.772C302.833 205.29 303.188 205.744 303.622 206.104C304.056 206.463 304.56 206.719 305.097 206.853C306.342 207.056 307.61 207.058 308.856 206.859C309.002 207.637 309.134 208.345 309.244 209.037C309.492 210.555 309.682 211.916 309.828 213.075L303.78 213.066L303.759 226.461L319.665 226.486L319.687 213.068L313.535 213.058C313.935 212.125 314.373 211.068 314.833 209.894C315.114 209.171 315.404 208.394 315.693 207.601C315.981 207.663 318.343 208.173 319.444 207.91C319.988 207.822 320.508 207.61 320.966 207.288C321.425 206.966 321.811 206.543 322.098 206.047C322.213 205.807 322.278 205.544 322.289 205.276C322.301 205.008 322.258 204.74 322.165 204.49C322.071 204.24 321.928 204.014 321.745 203.826C321.563 203.638 321.345 203.493 321.105 203.401C319.629 202.877 317.411 204.616 316.611 205.782C316.56 205.844 316.115 206.652 315.871 207.165C315.989 206.839 316.108 206.52 316.219 206.186C316.457 205.517 316.672 204.841 316.902 204.125C317.006 203.768 317.103 203.41 317.207 203.052C317.31 202.695 317.392 202.275 317.482 201.933C317.682 201.054 317.846 200.16 317.988 199.25C319.124 199.734 320.324 200.027 321.546 200.119C322.098 200.121 322.644 199.994 323.144 199.749C323.645 199.504 324.088 199.146 324.443 198.7C324.591 198.481 324.692 198.231 324.742 197.967C324.792 197.703 324.788 197.432 324.731 197.17C324.675 196.908 324.566 196.661 324.413 196.446C324.26 196.231 324.065 196.053 323.842 195.922C322.477 195.181 320.03 196.546 319.054 197.564C318.995 197.626 318.373 198.434 318.04 198.892C318.122 198.34 318.204 197.796 318.272 197.243C318.466 195.641 318.609 194.008 318.767 192.39C318.812 191.892 318.864 191.395 318.917 190.897C319.109 190.975 321.448 191.897 322.608 191.813C323.627 191.737 324.913 191.35 325.505 190.394C325.651 190.174 325.751 189.923 325.8 189.66C325.848 189.396 325.844 189.124 325.786 188.863C325.729 188.601 325.62 188.355 325.467 188.14C325.314 187.925 325.119 187.747 324.896 187.616C323.539 186.836 321.085 188.232 320.116 189.25C320.042 189.327 319.146 190.501 318.939 190.804C319.052 189.707 319.172 188.618 319.328 187.553C319.538 186.111 319.836 184.685 320.221 183.284C320.31 183.284 322.745 184.291 323.912 184.207C324.464 184.207 325.009 184.08 325.509 183.835C326.01 183.589 326.453 183.232 326.809 182.788C326.957 182.569 327.059 182.319 327.108 182.056C327.158 181.792 327.154 181.52 327.097 181.258C327.041 180.996 326.932 180.749 326.779 180.534C326.626 180.319 326.431 180.141 326.208 180.01C324.843 179.269 322.397 180.627 321.42 181.644C321.354 181.714 320.68 182.608 320.362 183.035L320.288 183.035C320.711 181.634 321.251 180.276 321.905 178.977C322.253 178.262 322.645 177.593 323.001 176.956C324.1 177.575 325.282 178.015 326.506 178.261C327.056 178.322 327.611 178.256 328.134 178.069C328.657 177.882 329.135 177.577 329.536 177.176C329.704 176.975 329.83 176.739 329.906 176.483C329.982 176.227 330.005 175.957 329.976 175.691C329.946 175.425 329.864 175.168 329.734 174.937C329.605 174.707 329.43 174.507 329.223 174.352C327.939 173.456 325.368 174.525 324.295 175.426C324.236 175.472 323.696 176.039 323.304 176.459C323.482 176.171 323.652 175.868 323.83 175.604C324.467 174.586 325.118 173.692 325.703 172.908C326.036 172.465 326.346 172.076 326.635 171.711C327.885 171.725 329.13 171.541 330.328 171.165C330.844 170.956 331.309 170.631 331.693 170.212C332.076 169.793 332.368 169.291 332.547 168.741C332.617 168.464 332.626 168.174 332.574 167.892C332.522 167.61 332.411 167.345 332.248 167.115C332.085 166.885 331.875 166.697 331.633 166.565C331.392 166.432 331.125 166.359 330.853 166.35ZM313.881 209.519C313.332 210.856 312.798 212.046 312.339 213.056L310.722 213.054C310.554 211.855 310.327 210.431 309.99 208.836C309.851 208.058 309.682 207.28 309.506 206.432C310.223 206.126 310.924 205.779 311.605 205.393C312.53 206.232 313.56 206.932 314.667 207.475C314.429 208.182 314.155 208.866 313.881 209.519Z" fill="#263238"/>
<path d="M10.7742 231.69L19.2034 318.149" stroke="#263238" stroke-width="2" stroke-miterlimit="10"/>
<path d="M17.8487 301.602L13.9712 297.278" stroke="#263238" stroke-width="2" stroke-miterlimit="10"/>
<path d="M15.1507 298.571C15.1422 297.911 15.0007 297.26 14.7356 296.662C14.4704 296.063 14.0878 295.531 13.6128 295.1C12.6173 294.165 7.37045 291.83 6.87258 293.774C6.33014 295.889 11.6923 300.052 15.1507 298.571Z" fill="#A259FF" stroke="#263238" stroke-miterlimit="10"/>
<path d="M15.1507 298.571L10.1638 295.289" stroke="#263238" stroke-width="0.5" stroke-miterlimit="10"/>
<path d="M18.8079 311.436L14.9304 307.112" stroke="#263238" stroke-width="2" stroke-miterlimit="10"/>
<path d="M16.1099 308.405C16.1013 307.745 15.9599 307.094 15.6947 306.496C15.4296 305.897 15.0469 305.365 14.572 304.934C13.5765 303.999 8.32963 301.664 7.83177 303.608C7.28932 305.723 12.6515 309.886 16.1099 308.405Z" fill="#A259FF" stroke="#263238" stroke-miterlimit="10"/>
<path d="M16.1099 308.405L11.123 305.123" stroke="#263238" stroke-width="0.5" stroke-miterlimit="10"/>
<path d="M15.5089 277.608L11.6313 273.285" stroke="#263238" stroke-width="2" stroke-miterlimit="10"/>
<path d="M12.8108 274.578C12.8023 273.918 12.6608 273.267 12.3957 272.668C12.1306 272.07 11.7479 271.537 11.2729 271.106C10.2775 270.163 5.0306 267.837 4.53274 269.781C3.99029 271.896 9.35242 276.058 12.8108 274.578Z" fill="#A259FF" stroke="#263238" stroke-miterlimit="10"/>
<path d="M12.8108 274.578L7.82394 271.295" stroke="#263238" stroke-width="0.5" stroke-miterlimit="10"/>
<path d="M16.468 287.442L12.5905 283.119" stroke="#263238" stroke-width="2" stroke-miterlimit="10"/>
<path d="M13.77 284.412C13.7615 283.751 13.62 283.101 13.3549 282.502C13.0898 281.904 12.7071 281.371 12.2321 280.94C11.2367 279.997 5.98979 277.671 5.49193 279.615C4.94949 281.73 10.3412 285.892 13.77 284.412Z" fill="#A259FF" stroke="#263238" stroke-miterlimit="10"/>
<path d="M13.77 284.412L8.78314 281.129" stroke="#263238" stroke-width="0.5" stroke-miterlimit="10"/>
<path d="M13.9538 261.636L10.0763 257.305" stroke="#263238" stroke-width="2" stroke-miterlimit="10"/>
<path d="M11.2558 258.606C11.2492 257.944 11.1079 257.292 10.8413 256.693C10.5747 256.094 10.1891 255.562 9.71053 255.134C8.71508 254.191 3.47558 251.865 2.97771 253.809C2.43527 255.924 7.7974 260.086 11.2558 258.606Z" fill="#A259FF" stroke="#263238" stroke-miterlimit="10"/>
<path d="M11.2558 258.606L6.26894 255.323" stroke="#263238" stroke-width="0.5" stroke-miterlimit="10"/>
<path d="M12.3916 245.594L8.51405 241.262" stroke="#263238" stroke-width="2" stroke-miterlimit="10"/>
<path d="M9.6714 242.563C9.6648 241.902 9.52343 241.249 9.25683 240.65C8.99023 240.052 8.60463 239.52 8.1261 239.091C7.13065 238.149 1.89116 235.815 1.39329 237.766C0.865613 239.881 6.22774 244.044 9.6714 242.563Z" fill="#A259FF" stroke="#263238" stroke-miterlimit="10"/>
<path d="M9.69355 242.563L4.69928 239.273" stroke="#263238" stroke-width="0.5" stroke-miterlimit="10"/>
<path d="M17.2081 295.782L20.1626 290.715" stroke="#263238" stroke-width="2" stroke-miterlimit="10"/>
<path d="M19.2593 292.238C19.1425 291.591 19.157 290.926 19.3019 290.285C19.4467 289.644 19.7186 289.043 20.0997 288.521C20.8916 287.387 25.5716 283.979 26.4401 285.778C27.3823 287.755 22.9358 292.952 19.2593 292.238Z" fill="#A259FF" stroke="#263238" stroke-miterlimit="10"/>
<path d="M19.2593 292.238L23.7638 287.718" stroke="#263238" stroke-width="0.5" stroke-miterlimit="10"/>
<path d="M14.6792 269.906L17.6412 264.839" stroke="#263238" stroke-width="2" stroke-miterlimit="10"/>
<path d="M16.7378 266.362C16.6199 265.714 16.6339 265.047 16.7788 264.405C16.9236 263.763 17.1961 263.16 17.5782 262.637C18.3702 261.503 23.0501 258.095 23.9187 259.894C24.8608 261.848 20.4143 267.076 16.7378 266.362Z" fill="#A259FF" stroke="#263238" stroke-miterlimit="10"/>
<path d="M16.7378 266.362L21.2423 261.842" stroke="#263238" stroke-width="0.5" stroke-miterlimit="10"/>
<path d="M13.5748 258.539L16.5367 253.472" stroke="#263238" stroke-width="2" stroke-miterlimit="10"/>
<path d="M15.6333 254.995C15.5134 254.347 15.5256 253.678 15.6692 253.035C15.8128 252.392 16.0845 251.788 16.4664 251.263C17.2657 250.128 21.9457 246.721 22.8068 248.519C23.749 250.473 19.3025 255.701 15.6333 254.995Z" fill="#A259FF" stroke="#263238" stroke-miterlimit="10"/>
<path d="M15.6334 254.995L20.1378 250.475" stroke="#263238" stroke-width="0.5" stroke-miterlimit="10"/>
<path d="M11.947 241.867L14.909 236.8" stroke="#263238" stroke-width="2" stroke-miterlimit="10"/>
<path d="M14.0056 238.323C13.8867 237.674 13.9001 237.005 14.045 236.362C14.1898 235.718 14.4629 235.114 14.846 234.59C15.638 233.456 20.3179 230.049 21.1865 231.847C22.1286 233.801 17.6821 239.029 14.0056 238.323Z" fill="#A259FF" stroke="#263238" stroke-miterlimit="10"/>
<path d="M14.0056 238.323L18.5101 233.803" stroke="#263238" stroke-width="0.5" stroke-miterlimit="10"/>
<path d="M10.7011 231.208C10.5822 230.559 10.5956 229.89 10.7405 229.247C10.8854 228.603 11.1584 227.999 11.5415 227.475C12.3335 226.341 17.0135 222.933 17.882 224.732C18.8242 226.686 14.3776 231.914 10.7011 231.208Z" fill="#A259FF" stroke="#263238" stroke-miterlimit="10"/>
<path d="M10.7011 231.208L15.2056 226.688" stroke="#263238" stroke-width="0.5" stroke-miterlimit="10"/>
<path d="M10.9667 231.403C10.3425 231.464 9.71326 231.385 9.12039 231.17C8.52751 230.956 7.98454 230.612 7.52733 230.16C6.54666 229.21 3.84482 223.932 5.60352 223.227C7.54699 222.421 12.0213 227.632 10.9667 231.403Z" fill="#A259FF" stroke="#263238" stroke-miterlimit="10"/>
<path d="M10.9667 231.403L7.17175 226.208" stroke="#263238" stroke-width="0.5" stroke-miterlimit="10"/>
<path d="M33.3453 243.628L24.6935 330.067" stroke="#263238" stroke-width="2" stroke-miterlimit="10"/>
<path d="M26.6028 313.579L23.657 308.511" stroke="#263238" stroke-width="2" stroke-miterlimit="10"/>
<path d="M24.5555 310.029C24.6754 309.381 24.6635 308.714 24.5207 308.072C24.3779 307.429 24.1073 306.826 23.7269 306.302C22.9312 305.165 18.262 301.75 17.3878 303.538C16.4468 305.497 20.8768 310.731 24.5555 310.029Z" fill="#A259FF" stroke="#263238" stroke-miterlimit="10"/>
<path d="M24.5555 310.029L20.3161 305.736" stroke="#263238" stroke-width="0.5" stroke-miterlimit="10"/>
<path d="M29.004 289.593L26.0581 284.517" stroke="#263238" stroke-width="2" stroke-miterlimit="10"/>
<path d="M26.9567 286.043C27.0777 285.394 27.0664 284.725 26.9235 284.082C26.7807 283.438 26.5095 282.833 26.1281 282.308C25.3397 281.171 20.6632 277.749 19.7964 279.544C18.848 281.518 23.2779 286.745 26.9567 286.043Z" fill="#A259FF" stroke="#263238" stroke-miterlimit="10"/>
<path d="M26.9567 286.043L22.7172 281.742" stroke="#263238" stroke-width="0.5" stroke-miterlimit="10"/>
<path d="M28.021 299.424L25.0751 294.348" stroke="#263238" stroke-width="2" stroke-miterlimit="10"/>
<path d="M25.9737 295.874C26.0936 295.226 26.0817 294.559 25.9389 293.916C25.7961 293.274 25.5255 292.671 25.1451 292.146C24.3493 291.009 19.6802 287.587 18.806 289.383C17.865 291.334 22.2949 296.576 25.9737 295.874Z" fill="#A259FF" stroke="#263238" stroke-miterlimit="10"/>
<path d="M25.9737 295.874L21.7342 291.573" stroke="#263238" stroke-width="0.5" stroke-miterlimit="10"/>
<path d="M30.6023 273.626L27.6564 268.55" stroke="#263238" stroke-width="2" stroke-miterlimit="10"/>
<path d="M28.5549 270.076C28.6759 269.427 28.6646 268.758 28.5218 268.114C28.379 267.47 28.1078 266.866 27.7264 266.341C26.938 265.211 22.2615 261.789 21.3946 263.585C20.4463 265.536 24.8762 270.778 28.5549 270.076Z" fill="#A259FF" stroke="#263238" stroke-miterlimit="10"/>
<path d="M28.5549 270.076L24.3155 265.775" stroke="#263238" stroke-width="0.5" stroke-miterlimit="10"/>
<path d="M32.2081 257.589L29.2622 252.512" stroke="#263238" stroke-width="2" stroke-miterlimit="10"/>
<path d="M30.1607 254.038C30.2817 253.389 30.2704 252.721 30.1276 252.077C29.9847 251.433 29.7136 250.828 29.3322 250.303C28.5438 249.166 23.8673 245.752 23.0004 247.547C22.052 249.498 26.482 254.733 30.1607 254.038Z" fill="#A259FF" stroke="#263238" stroke-miterlimit="10"/>
<path d="M30.1607 254.038L25.9213 249.738" stroke="#263238" stroke-width="0.5" stroke-miterlimit="10"/>
<path d="M27.1069 307.746L30.9981 303.435" stroke="#263238" stroke-width="2" stroke-miterlimit="10"/>
<path d="M29.8145 304.724C29.8251 304.064 29.9687 303.413 30.2357 302.816C30.5027 302.218 30.8871 301.687 31.3634 301.257C32.3618 300.326 37.6087 298 38.1078 299.946C38.6435 302.062 33.2682 306.216 29.8145 304.724Z" fill="#A259FF" stroke="#263238" stroke-miterlimit="10"/>
<path d="M29.8145 304.724L35.1074 301.279" stroke="#263238" stroke-width="0.5" stroke-miterlimit="10"/>
<path d="M29.6956 281.878L33.5868 277.567" stroke="#263238" stroke-width="2" stroke-miterlimit="10"/>
<path d="M32.4033 278.856C32.4185 278.193 32.5678 277.541 32.8412 276.943C33.1147 276.345 33.506 275.815 33.9891 275.389C34.9875 274.45 40.2344 272.132 40.7335 274.078C41.2323 276.194 35.8643 280.347 32.4033 278.856Z" fill="#A259FF" stroke="#263238" stroke-miterlimit="10"/>
<path d="M32.4033 278.856L37.6962 275.411" stroke="#263238" stroke-width="0.5" stroke-miterlimit="10"/>
<path d="M30.8362 270.507L34.7274 266.196" stroke="#263238" stroke-width="2" stroke-miterlimit="10"/>
<path d="M33.5438 267.485C33.5544 266.825 33.698 266.175 33.965 265.577C34.232 264.979 34.6164 264.448 35.0927 264.019C36.0911 263.087 41.338 260.761 41.8297 262.707C42.3728 264.831 36.9975 268.977 33.5438 267.485Z" fill="#A259FF" stroke="#263238" stroke-miterlimit="10"/>
<path d="M33.5438 267.485L38.8367 264.04" stroke="#263238" stroke-width="0.5" stroke-miterlimit="10"/>
<path d="M32.502 253.848L36.3932 249.529" stroke="#263238" stroke-width="2" stroke-miterlimit="10"/>
<path d="M35.2096 250.818C35.2161 250.153 35.3576 249.496 35.6248 248.893C35.892 248.289 36.2785 247.753 36.7586 247.32C37.757 246.388 43.0039 244.063 43.503 246.016C44.0386 248.164 38.6707 252.309 35.2096 250.818Z" fill="#A259FF" stroke="#263238" stroke-miterlimit="10"/>
<path d="M35.2096 250.818L40.5026 247.373" stroke="#263238" stroke-width="0.5" stroke-miterlimit="10"/>
<path d="M33.3682 243.145C33.3788 242.485 33.5224 241.834 33.7894 241.237C34.0564 240.639 34.4408 240.108 34.9171 239.678C35.9156 238.739 41.1624 236.421 41.6615 238.367C42.1677 240.483 36.8293 244.637 33.3682 243.145Z" fill="#A259FF" stroke="#263238" stroke-miterlimit="10"/>
<path d="M33.3682 243.145L38.6612 239.7" stroke="#263238" stroke-width="0.5" stroke-miterlimit="10"/>
<path d="M33.5893 243.426C32.966 243.349 32.3656 243.133 31.8285 242.791C31.2915 242.45 30.8303 241.991 30.4761 241.445C29.6951 240.3 28.0574 234.565 29.9484 234.249C32.002 233.863 35.3598 239.928 33.5893 243.426Z" fill="#A259FF" stroke="#263238" stroke-miterlimit="10"/>
<path d="M33.5894 243.387L30.8885 237.486" stroke="#263238" stroke-width="0.5" stroke-miterlimit="10"/>
<path d="M23.6385 208.405L23.4651 317.736" stroke="#263238" stroke-width="2" stroke-miterlimit="10"/>
<path d="M23.5798 301.3L20.146 296.572" stroke="#263238" stroke-width="2" stroke-miterlimit="10"/>
<path d="M21.1924 297.99C21.2493 297.331 21.1726 296.667 20.9673 296.042C20.7621 295.416 20.4329 294.844 20.0018 294.363C19.1025 293.327 14.1001 290.464 13.4326 292.315C12.6835 294.351 17.6016 299.081 21.1924 297.99Z" fill="#A259FF" stroke="#263238" stroke-miterlimit="10"/>
<path d="M21.1924 297.99L16.5534 294.179" stroke="#263238" stroke-width="0.5" stroke-miterlimit="10"/>
<path d="M23.6124 280.748L20.1786 276.029" stroke="#263238" stroke-width="2" stroke-miterlimit="10"/>
<path d="M21.2249 277.446C21.2819 276.787 21.2052 276.123 20.9999 275.498C20.7947 274.873 20.4655 274.3 20.0344 273.819C19.1351 272.776 14.1328 269.882 13.4652 271.763C12.7161 273.808 17.6342 278.537 21.2249 277.446Z" fill="#A259FF" stroke="#263238" stroke-miterlimit="10"/>
<path d="M21.2249 277.446L16.586 273.627" stroke="#263238" stroke-width="0.5" stroke-miterlimit="10"/>
<path d="M23.6506 256.634L20.2168 251.907" stroke="#263238" stroke-width="2" stroke-miterlimit="10"/>
<path d="M21.2632 253.324C21.3201 252.665 21.2434 252.001 21.0382 251.376C20.8329 250.751 20.5038 250.178 20.0726 249.697C19.1733 248.654 14.171 245.799 13.5034 247.641C12.7543 249.686 17.6725 254.415 21.2632 253.324Z" fill="#A259FF" stroke="#263238" stroke-miterlimit="10"/>
<path d="M21.2632 253.324L16.6242 249.505" stroke="#263238" stroke-width="0.5" stroke-miterlimit="10"/>
<path d="M23.6761 240.571L20.2423 235.844" stroke="#263238" stroke-width="2" stroke-miterlimit="10"/>
<path d="M21.2887 237.261C21.3446 236.603 21.2673 235.941 21.0621 235.317C20.8569 234.693 20.5283 234.122 20.0981 233.642C19.1988 232.598 14.1965 229.704 13.5289 231.586C12.7798 233.63 17.6979 238.36 21.2887 237.261Z" fill="#A259FF" stroke="#263238" stroke-miterlimit="10"/>
<path d="M21.2887 237.261L16.6497 233.45" stroke="#263238" stroke-width="0.5" stroke-miterlimit="10"/>
<path d="M23.7017 224.445L20.2679 219.718" stroke="#263238" stroke-width="2" stroke-miterlimit="10"/>
<path d="M21.3142 221.136C21.3701 220.478 21.2929 219.815 21.0877 219.191C20.8824 218.568 20.5538 217.997 20.1236 217.517C19.2244 216.473 14.2221 213.579 13.5545 215.46C12.8053 217.505 17.7235 222.235 21.3142 221.136Z" fill="#A259FF" stroke="#263238" stroke-miterlimit="10"/>
<path d="M21.3142 221.136L16.6753 217.324" stroke="#263238" stroke-width="0.5" stroke-miterlimit="10"/>
<path d="M23.4886 307.569L26.9374 302.853" stroke="#263238" stroke-width="2" stroke-miterlimit="10"/>
<path d="M25.8865 304.267C25.8327 303.609 25.912 302.947 26.1193 302.324C26.3265 301.7 26.6568 301.131 27.0886 300.652C27.9912 299.611 33.0026 296.733 33.6642 298.616C34.4069 300.663 29.5107 305.377 25.8865 304.267Z" fill="#A259FF" stroke="#263238" stroke-miterlimit="10"/>
<path d="M25.8865 304.267L30.8111 300.269" stroke="#263238" stroke-width="0.5" stroke-miterlimit="10"/>
<path d="M23.5404 274.891L26.9892 270.182" stroke="#263238" stroke-width="2" stroke-miterlimit="10"/>
<path d="M25.9383 271.596C25.8834 270.937 25.9623 270.273 26.1695 269.649C26.3767 269.024 26.7077 268.453 27.1404 267.973C28.043 266.932 33.0544 264.093 33.7161 265.938C34.4587 267.985 29.5625 272.699 25.9383 271.596Z" fill="#A259FF" stroke="#263238" stroke-miterlimit="10"/>
<path d="M25.9383 271.596L30.8629 267.59" stroke="#263238" stroke-width="0.5" stroke-miterlimit="10"/>
<path d="M23.566 258.765L27.0148 254.049" stroke="#263238" stroke-width="2" stroke-miterlimit="10"/>
<path d="M25.9639 255.463C25.9101 254.805 25.9894 254.143 26.1967 253.52C26.4039 252.896 26.7343 252.327 27.166 251.848C28.0686 250.807 33.0799 247.968 33.7417 249.812C34.4843 251.859 29.5881 256.573 25.9639 255.463Z" fill="#A259FF" stroke="#263238" stroke-miterlimit="10"/>
<path d="M25.9639 255.463L30.8885 251.465" stroke="#263238" stroke-width="0.5" stroke-miterlimit="10"/>
<path d="M23.5998 237.451L27.0486 232.735" stroke="#263238" stroke-width="2" stroke-miterlimit="10"/>
<path d="M25.9977 234.149C25.9439 233.491 26.0232 232.829 26.2305 232.206C26.4377 231.583 26.7681 231.013 27.1998 230.534C28.1024 229.493 33.1138 226.615 33.7755 228.499C34.5181 230.546 29.6219 235.26 25.9977 234.149Z" fill="#A259FF" stroke="#263238" stroke-miterlimit="10"/>
<path d="M25.9977 234.149L30.9223 230.143" stroke="#263238" stroke-width="0.5" stroke-miterlimit="10"/>
<path d="M23.6264 220.688L27.0752 215.972" stroke="#263238" stroke-width="2" stroke-miterlimit="10"/>
<path d="M26.0243 217.394C25.9694 216.735 26.0482 216.071 26.2555 215.446C26.4627 214.821 26.7937 214.25 27.2264 213.771C28.129 212.73 33.1404 209.852 33.802 211.735C34.5447 213.782 29.6484 218.527 26.0243 217.394Z" fill="#A259FF" stroke="#263238" stroke-miterlimit="10"/>
<path d="M26.0243 217.394L30.9489 213.388" stroke="#263238" stroke-width="0.5" stroke-miterlimit="10"/>
<path d="M23.444 209.961C23.3859 209.303 23.4625 208.64 23.6686 208.017C23.8747 207.393 24.2055 206.823 24.6387 206.346C25.5413 205.305 30.5527 202.466 31.2218 204.31C31.9644 206.349 27.0239 211.063 23.444 209.961Z" fill="#A259FF" stroke="#263238" stroke-miterlimit="10"/>
<path d="M23.444 209.953L28.3686 205.947" stroke="#263238" stroke-width="0.5" stroke-miterlimit="10"/>
<path d="M23.6801 210.179C23.0526 210.167 22.4347 210.015 21.8673 209.732C21.3 209.45 20.7961 209.043 20.389 208.54C19.5045 207.489 17.3126 201.955 19.1597 201.436C21.1692 200.872 25.1037 206.541 23.6801 210.179Z" fill="#A259FF" stroke="#263238" stroke-miterlimit="10"/>
<path d="M23.68 210.179L20.4174 204.596" stroke="#263238" stroke-width="0.5" stroke-miterlimit="10"/>
<path d="M27.6959 346.096L16.7 346.079L15.3728 316.836L29.1158 316.858L27.6959 346.096Z" fill="#263238" stroke="#263238" stroke-miterlimit="10"/>
<path d="M74.9073 122.282L8.87277 122.178L9.04839 11.4468L90.805 11.5765L90.6294 122.307L79.1978 122.289" stroke="#263238" stroke-miterlimit="10"/>
<path d="M87.8374 15.5856L12.0107 15.4653L11.8478 118.168L87.6745 118.289L87.8374 15.5856Z" stroke="#263238" stroke-miterlimit="10"/>
<path d="M27.1565 43.6175C28.4964 44.9276 29.9288 46.1287 31.4414 47.2103C48.5767 59.4968 77.6819 53.74 87.4538 71.1722" stroke="#263238" stroke-miterlimit="10"/>
<path d="M17.0981 15.8935C16.6799 20.4806 17.1677 25.1091 18.5309 29.4876C19.894 33.8662 22.1029 37.8999 25.0186 41.3349" stroke="#263238" stroke-miterlimit="10"/>
<path d="M23.507 72.4787C31.8813 67.8247 42.72 64.5515 48.2509 74.0115C54.6657 84.9975 24.9187 104.312 24.8967 118.174" stroke="#263238" stroke-miterlimit="10"/>
<path d="M12.0997 80.4106C14.9683 77.977 18.0083 75.7767 21.1934 73.8286" stroke="#263238" stroke-miterlimit="10"/>
<path d="M51.7105 15.9483C51.7105 15.9483 62.7073 34.0359 87.8305 29.2296" stroke="#263238" stroke-miterlimit="10"/>
<path d="M54.9759 33.6969C55.026 34.1254 55.05 34.5567 55.0477 34.9883C55.04 37.5849 54.1306 40.0888 52.491 42.028C50.8514 43.9672 48.595 45.2076 46.1473 45.5152C43.6996 45.8229 41.2298 45.1766 39.2036 43.6982C37.1774 42.2198 35.7349 40.0115 35.1481 37.4897C34.5613 34.9679 34.8707 32.3069 36.0181 30.0086C37.1654 27.7103 39.0714 25.9335 41.3766 25.0132C43.6817 24.093 46.2267 24.0929 48.5316 25.013C50.8366 25.9331 52.7421 27.7098 53.8889 30.0081" stroke="#263238" stroke-miterlimit="10"/>
<path d="M80.1331 49.3878C80.1272 50.3763 79.8433 51.3409 79.3172 52.1597C78.7912 52.9785 78.0466 53.6148 77.1776 53.9882C76.3085 54.3615 75.3539 54.4553 74.4344 54.2576C73.5149 54.0599 72.6717 53.5796 72.0112 52.8773C71.3508 52.1751 70.9027 51.2824 70.7236 50.312C70.5446 49.3416 70.6426 48.337 71.0052 47.4251C71.3678 46.5132 71.9788 45.7349 72.761 45.1885C73.5432 44.6422 74.4616 44.3521 75.4001 44.3552C76.0252 44.3561 76.6439 44.4873 77.2206 44.7411C77.7974 44.995 78.3208 45.3664 78.7606 45.8342C79.2005 46.3019 79.5483 46.8567 79.7838 47.4665C80.0194 48.0764 80.1381 48.7293 80.1331 49.3878Z" stroke="#263238" stroke-miterlimit="10"/>
<path d="M80.1461 83.1244C82.8194 83.8614 85.3124 85.1914 87.4582 87.0254" stroke="#263238" stroke-miterlimit="10"/>
<path d="M61.9016 118.31C58.9973 115.495 56.9675 111.823 56.0778 107.773C55.1882 103.722 55.4802 99.4834 56.9156 95.6106C58.351 91.7377 60.8629 88.4113 64.1226 86.0668C67.3823 83.7223 71.2378 82.469 75.1846 82.4709C75.5686 82.4715 75.923 82.472 76.3144 82.4727" stroke="#263238" stroke-miterlimit="10"/>
<path d="M227.358 346.413L344.776 346.599" stroke="#263238" stroke-miterlimit="10"/>
<path d="M1.38402 346.055L221.45 346.404" stroke="#263238" stroke-miterlimit="10"/>
<path d="M282.178 18.6242L133.131 18.3878L132.67 309.228L281.716 309.464L282.178 18.6242Z" fill="white"/>
<path d="M281.795 259.867L132.749 259.631L132.67 309.228L281.716 309.464L281.795 259.867Z" fill="#DEDEDE"/>
<path d="M286.562 75.8519C287.05 75.8527 287.518 75.6493 287.863 75.2866C288.209 74.9239 288.403 74.4316 288.404 73.9179L288.435 54.5254C288.436 54.0117 288.243 53.5187 287.898 53.155C287.554 52.7912 287.087 52.5864 286.599 52.5856C286.484 52.5735 286.367 52.5734 286.252 52.585L286.309 16.3438C286.315 13.0284 285.069 9.84691 282.848 7.49909C280.626 5.15126 277.609 3.82946 274.462 3.82447L143.641 3.617C142.082 3.6135 140.537 3.93363 139.096 4.5591C137.654 5.18456 136.344 6.1031 135.239 7.26223C134.134 8.42136 133.257 9.79836 132.658 11.3146C132.059 12.8307 131.749 14.4564 131.746 16.0986L131.282 308.806C131.277 312.123 132.523 315.307 134.746 317.656C136.969 320.005 139.988 321.328 143.137 321.333L273.958 321.54C277.106 321.543 280.127 320.229 282.356 317.887C284.585 315.545 285.84 312.367 285.845 309.051L286.128 130.979C286.243 130.991 286.359 130.992 286.475 130.98C286.963 130.979 287.431 130.774 287.776 130.41C288.121 130.046 288.316 129.553 288.317 129.038L288.347 109.685C288.348 109.171 288.155 108.678 287.811 108.314C287.467 107.95 286.999 107.746 286.511 107.745C286.395 107.746 286.279 107.758 286.164 107.783L286.171 103.396C286.285 103.421 286.402 103.434 286.518 103.435C287.005 103.434 287.472 103.23 287.817 102.868C288.162 102.506 288.357 102.014 288.36 101.501L288.391 82.1011C288.39 81.5881 288.196 81.0963 287.852 80.7329C287.509 80.3696 287.042 80.1641 286.555 80.1613C286.439 80.1621 286.322 80.175 286.208 80.1997L286.215 75.8047C286.329 75.8323 286.445 75.8481 286.562 75.8519ZM278.98 302.693L138.167 302.469L138.607 25.1796L279.42 25.4029L278.98 302.693Z" fill="#263238"/>
<path d="M274.623 28.2734L262.947 28.2549L262.937 34.9991L274.612 35.0176L274.623 28.2734Z" stroke="#263238" stroke-width="0.821067" stroke-linecap="round" stroke-linejoin="round"/>
<path d="M272.053 28.2694L262.947 28.2549L262.937 34.9991L272.042 35.0136L272.053 28.2694Z" fill="#263238" stroke="#263238" stroke-width="0.725073" stroke-linecap="round" stroke-linejoin="round"/>
<path d="M276.244 30.1663L274.597 30.1637L274.593 33.1351L276.239 33.1378L276.244 30.1663Z" fill="#263238" stroke="#263238" stroke-width="0.725073" stroke-linecap="round" stroke-linejoin="round"/>
<path d="M143.909 30.1586L141.767 30.1552L141.761 34.0213L143.903 34.0247L143.909 30.1586Z" fill="#263238" stroke="#263238" stroke-width="0.883086" stroke-linecap="round" stroke-linejoin="round"/>
<path d="M147.279 28.8105L145.137 28.8071L145.129 34.0266L147.27 34.03L147.279 28.8105Z" fill="#263238" stroke="#263238" stroke-width="0.883086" stroke-linecap="round" stroke-linejoin="round"/>
<path d="M150.641 27.2056L148.5 27.2022L148.489 34.032L150.63 34.0353L150.641 27.2056Z" fill="#263238" stroke="#263238" stroke-width="0.883086" stroke-linecap="round" stroke-linejoin="round"/>
<path d="M276.075 38.7693L140.853 38.5549L140.794 75.9863L276.016 76.2007L276.075 38.7693Z" fill="#A259FF"/>
<path d="M175.021 43.9998L174.978 71.4821" stroke="white" stroke-miterlimit="10"/>
<path d="M209.479 44.0544L209.435 71.5368" stroke="white" stroke-miterlimit="10"/>
<path d="M243.943 44.1091L243.9 71.5915" stroke="white" stroke-miterlimit="10"/>
<path opacity="0.15" d="M284.909 130.978C285.024 130.99 285.141 130.99 285.256 130.978C285.745 130.977 286.213 130.772 286.558 130.408C286.903 130.044 287.097 129.551 287.098 129.036L287.109 122.09L278.021 138.901L277.762 302.691L189.61 302.551L179.396 321.39L272.732 321.538C275.881 321.543 278.904 320.23 281.135 317.888C283.365 315.546 284.621 312.366 284.627 309.049L284.909 130.978Z" fill="white"/>
<path d="M203.012 205.135L203.027 196.244L207.243 196.251L207.25 191.778L203.048 191.771C203.051 190.285 203.053 188.792 203.056 187.306L211.511 187.32L211.518 182.878L215.742 182.885L215.735 187.303L219.974 187.31L219.988 178.38L232.69 178.4L232.683 182.841L236.885 182.848L236.892 178.406L232.675 178.4L232.682 173.919L224.212 173.906L224.226 165.053L211.517 165.033L211.51 169.483L203.084 169.469L203.07 178.392L207.264 178.398L207.257 182.848L203.04 182.841L203.033 187.298L198.809 187.292L198.816 182.827L186.122 182.806L186.129 178.365L198.823 178.385L198.88 142.696L203.126 142.703C203.119 146.997 203.113 151.29 203.106 155.584L203.105 156.067L207.337 156.073L207.351 147.182L211.567 147.189L211.553 156.096L215.807 156.102L215.8 160.544L236.964 160.578L236.957 165.027L241.196 165.034L241.189 169.522L236.972 169.515L236.965 173.988L241.167 173.995L241.153 182.925L245.399 182.932L245.385 191.846L241.183 191.839L241.169 200.738L245.312 200.745L245.305 205.202L253.761 205.215L253.753 209.665L241.111 209.645L241.097 218.552L236.873 218.545L236.88 214.095L228.387 214.082L228.394 209.625L224.17 209.618L224.177 205.169L232.603 205.182L232.61 200.725L211.497 200.691L211.49 205.125L203.013 205.112L203.012 205.135ZM228.422 191.796L228.429 187.362L224.228 187.355L224.221 191.781L228.437 191.788L228.43 196.23L236.864 196.243L236.871 191.809L228.422 191.796ZM219.945 191.782L215.787 191.776L215.78 196.186L219.967 196.193L219.945 191.782ZM228.48 169.447L232.667 169.454L232.674 165.036L228.487 165.029L228.48 169.447Z" fill="#263238"/>
<path d="M164.992 155.991L165.042 124.813L194.633 124.86L194.583 156.038L164.992 155.991ZM169.281 129.293L169.246 151.548L190.366 151.581L190.401 129.326L169.281 129.293Z" fill="#263238"/>
<path d="M253.86 156.139L224.27 156.092L224.319 124.923L253.91 124.97L253.86 156.139ZM249.679 129.42L228.558 129.387L228.523 151.634L249.643 151.668L249.679 129.42Z" fill="#263238"/>
<path d="M164.95 187.246L194.548 187.293L194.499 218.47L164.901 218.423L164.95 187.246ZM190.31 191.759L169.182 191.725L169.147 213.98L190.274 214.014L190.31 191.759Z" fill="#263238"/>
<path d="M203.104 142.703L203.118 133.78L198.894 133.774L198.908 124.875L220.036 124.908L220.022 133.792L215.879 133.785L215.872 138.25L220.059 138.257L220.045 147.156L215.828 147.149L215.835 142.723L211.582 142.716L211.589 138.267L207.365 138.26L207.358 142.694L203.097 142.687L203.104 142.703ZM207.365 133.756L211.559 133.763L211.566 129.36L207.372 129.353L207.365 133.756Z" fill="#263238"/>
<path d="M186.128 164.962L186.121 169.419L194.577 169.433L194.57 173.882L181.89 173.862L181.876 182.776L164.965 182.75L164.979 173.882L169.166 173.888L169.159 178.299L177.651 178.312L177.673 164.949L186.136 164.962L186.128 164.962Z" fill="#263238"/>
<path d="M202.998 205.127L202.991 209.584L207.222 209.591L207.215 214.041L211.432 214.047L211.425 218.505L198.76 218.484L198.781 205.128L202.983 205.135L202.998 205.127Z" fill="#263238"/>
<path d="M177.673 164.949L169.21 164.935L169.203 169.377L164.986 169.37L165 160.502L177.665 160.522L177.658 164.956L177.673 164.949Z" fill="#263238"/>
<path d="M253.832 173.976L249.638 173.969L249.652 165.078L245.428 165.072L245.435 160.622L253.853 160.635L253.832 173.976Z" fill="#263238"/>
<path d="M186.135 164.977L186.143 160.536L194.583 160.549L194.576 164.975L186.128 164.962L186.135 164.977Z" fill="#263238"/>
<path d="M245.385 182.908L245.392 178.467L249.594 178.473L249.587 182.899L245.34 182.893L245.385 182.908Z" fill="#263238"/>
<path d="M249.624 187.388L253.811 187.394L253.804 191.813L249.617 191.806L249.624 187.388Z" fill="#263238"/>
<path d="M215.785 156.102L215.792 151.661L220.001 151.667L219.994 156.093L215.777 156.087L215.785 156.102Z" fill="#263238"/>
<path d="M203.027 196.244L198.795 196.237L198.802 191.788L203.004 191.794L202.997 196.244L203.027 196.244Z" fill="#263238"/>
<path d="M245.356 200.745L245.363 196.311L249.565 196.318L249.558 200.744L245.356 200.737L245.356 200.745Z" fill="#263238"/>
<path d="M241.16 169.522L245.362 169.529L245.354 173.978L241.153 173.971L241.16 169.499L241.16 169.522Z" fill="#263238"/>
<path d="M219.902 214.061L215.708 214.054L215.715 209.644L219.909 209.65L219.902 214.061Z" fill="#263238"/>
<path d="M228.387 214.082L228.38 218.524L224.178 218.517L224.185 214.091L228.402 214.098L228.387 214.082Z" fill="#263238"/>
<path d="M253.761 218.579L249.574 218.573L249.581 214.154L253.768 214.161L253.761 218.579Z" fill="#263238"/>
<path d="M219.988 178.38L215.808 178.373L215.815 173.947L220.025 173.954L220.018 178.38L219.988 178.38Z" fill="#263238"/>
<path d="M186.134 147.11L173.477 147.09L173.498 133.757L186.155 133.777L186.134 147.11Z" fill="#263238"/>
<path d="M232.747 147.176L232.768 133.843L245.418 133.863L245.397 147.196L232.747 147.176Z" fill="#263238"/>
<path d="M173.378 209.522L173.399 196.197L186.056 196.217L186.035 209.55L173.378 209.522Z" fill="#263238"/>
<path d="M177.354 114.269L158.818 114.24L158.784 135.779" stroke="#A259FF" stroke-width="2" stroke-miterlimit="10"/>
<path d="M244.762 114.376L263.291 114.406L263.256 135.945" stroke="#A259FF" stroke-width="2" stroke-miterlimit="10"/>
<path d="M177.174 227.699L158.639 227.67L158.673 206.13" stroke="#A259FF" stroke-width="2" stroke-miterlimit="10"/>
<path d="M244.582 227.806L263.111 227.835L263.145 206.296" stroke="#A259FF" stroke-width="2" stroke-miterlimit="10"/>
<path d="M120.949 118.847L114.798 118.837C113.709 118.836 112.825 119.764 112.823 120.911L112.794 139.059C112.792 140.206 113.674 141.137 114.763 141.139L120.914 141.149C122.003 141.15 122.887 140.222 122.889 139.075L122.918 120.927C122.92 119.78 122.038 118.849 120.949 118.847Z" fill="#263238" stroke="#263238" stroke-miterlimit="10"/>
<path d="M122.017 120.817L113.709 120.804L113.68 139.161L121.988 139.175L122.017 120.817Z" fill="white" stroke="#263238" stroke-miterlimit="10"/>
<path d="M32.3362 227.998C35.2992 227.986 38.2003 227.104 40.7146 225.453C40.5442 230.415 40.4127 234.172 40.4127 234.172C40.4127 234.172 41.2227 235.667 41.6278 236.313C42.033 236.959 45.4783 239.096 45.8814 241.026C46.2845 242.956 48.0921 244.024 47.903 246.801C47.714 249.578 45.4664 246.579 45.8715 247.226C46.2767 247.872 47.4918 250.005 47.4887 251.934C47.4857 253.864 43.6308 253.85 42.2076 252.564C40.7844 251.278 36.1294 248.276 35.7276 245.498L34.1498 239.273L32.3362 227.998Z" fill="white" stroke="#263238" stroke-miterlimit="10"/>
<path d="M40.7451 243.437L41.7273 248.106C41.7273 248.106 44.9208 250.701 45.1616 252.522" fill="white"/>
<path d="M40.7451 243.437L41.7273 248.106C41.7273 248.106 44.9208 250.701 45.1616 252.522" stroke="#263238" stroke-miterlimit="10"/>
<path d="M45.8642 247.226L44.4363 244.221" stroke="#263238" stroke-miterlimit="10"/>
<path d="M56.5472 342.074C56.5472 342.074 55.3719 352.083 56.2709 353.306C56.7777 354.076 57.4235 354.733 58.1716 355.24C58.9197 355.747 59.7553 356.094 60.6306 356.261C62.6832 356.537 66.156 355.321 66.156 355.321C68.4973 355.987 70.9306 356.22 73.3476 356.009C77.0406 355.61 79.5095 354.128 79.771 352.231C80.0325 350.333 76.8214 349.527 75.0301 347.494C73.2388 345.461 70.3792 341.862 70.3792 341.862L69.6449 339.232C69.6449 339.232 65.2768 341.559 62.4557 341.655C60.8601 341.753 59.2594 341.615 57.7006 341.243L56.5472 342.074Z" fill="white" stroke="#263238" stroke-miterlimit="10"/>
<path d="M79.771 352.254C79.8005 352.032 79.7807 351.806 79.7129 351.593C78.8631 351.965 77.7768 352.414 76.432 352.926C72.5748 354.413 70.6493 353.189 68.7292 353.186C66.8092 353.183 66.6655 355.345 61.2769 353.851C57.756 352.873 56.4361 351.618 55.9351 350.855C55.8631 351.689 55.9781 352.528 56.2709 353.306C56.7777 354.076 57.4235 354.733 58.1716 355.24C58.9197 355.747 59.7553 356.094 60.6306 356.261C62.6832 356.537 66.1559 355.321 66.1559 355.321C68.4972 355.987 70.9306 356.22 73.3476 356.009C77.0701 355.634 79.5095 354.152 79.771 352.254Z" fill="white" stroke="#263238" stroke-miterlimit="10"/>
<path d="M49.8986 217.782C49.8986 217.782 44.7003 236.054 46.5262 248.891C48.352 261.729 57.1755 285.858 57.1755 285.858C57.1755 285.858 56.0536 294.801 56.0486 297.913C56.0437 301.024 53.4498 306.854 55.2861 313.08C57.1224 319.306 57.0965 335.642 57.0946 336.808C57.0928 337.975 56.3445 344.197 56.3445 344.197C56.3445 344.197 57.8177 346.533 63.3563 346.542C68.8948 346.551 70.3792 341.886 70.3792 341.886C70.3792 341.886 75.9727 307.279 75.9813 301.834C75.9899 296.389 81.9298 276.173 84.1582 268.009C85.6487 262.389 87.8033 256.988 90.5715 251.933C92.0528 249.213 91.2557 216.291 91.2557 216.291L49.1688 212.335L49.8986 217.782Z" fill="#737373" stroke="#263238" stroke-miterlimit="10"/>
<path d="M78.7565 344.684C78.7565 344.684 84.2766 346.987 86.9699 348.345C89.6632 349.703 91.4575 349.838 91.454 352.008C91.4506 354.179 86.5732 356.326 83.6185 356.865C80.6637 357.405 75.9082 357.258 75.3984 357.389C74.8886 357.52 65.2492 358.999 64.1012 356.422C62.9533 353.846 64.2448 345.065 64.2448 345.065C69.059 345.939 73.9893 345.81 78.7565 344.684Z" fill="white" stroke="#263238" stroke-miterlimit="10"/>
<path d="M75.3984 357.389C75.9082 357.258 80.6637 357.397 83.6185 356.865C86.5732 356.333 91.4506 354.171 91.454 352.008C91.4564 351.723 91.417 351.44 91.3372 351.168C90.0892 351.932 88.7983 352.616 87.4717 353.215C83.8728 354.835 79.1227 355.909 71.9597 355.766C69.1841 355.755 66.4208 355.377 63.7348 354.64C63.775 355.253 63.9087 355.854 64.1308 356.422C65.2492 358.999 74.8812 357.528 75.3984 357.389Z" fill="white" stroke="#263238" stroke-miterlimit="10"/>
<path d="M91.62 219.404C91.62 219.404 93.7855 250.911 89.317 274.629C84.8485 298.347 77.4126 330.618 77.0409 332.173C76.6692 333.728 79.6163 338.011 79.6163 338.011L79.6064 344.234C79.6064 344.234 77.0174 346.952 71.1084 347.721C65.1994 348.489 63.3563 346.542 63.3563 346.542C63.3563 346.542 61.896 336.038 61.9077 328.648C61.9194 321.259 63.4365 295.98 63.4365 295.98C63.4365 295.98 66.8003 270.315 66.4372 266.425C66.0742 262.535 64.9856 250.476 64.9856 250.476L59.0895 243.077" fill="#737373"/>
<path d="M91.62 219.404C91.62 219.404 93.7855 250.911 89.317 274.629C84.8485 298.347 77.4126 330.618 77.0409 332.173C76.6692 333.728 79.6163 338.011 79.6163 338.011L79.6064 344.234C79.6064 344.234 77.0174 346.952 71.1084 347.721C65.1994 348.489 63.3563 346.542 63.3563 346.542C63.3563 346.542 61.896 336.038 61.9077 328.648C61.9194 321.259 63.4365 295.98 63.4365 295.98C63.4365 295.98 66.8003 270.315 66.4372 266.425C66.0742 262.535 64.9856 250.476 64.9856 250.476L59.0895 243.077" stroke="#263238" stroke-miterlimit="10"/>
<path d="M29.5606 213.378L41.1802 211.249C41.1259 212.906 41.4748 202.436 41.476 201.658C41.4787 199.947 45.3506 189.218 45.3506 189.218C45.3506 189.218 48.3711 203.132 48.3684 204.843C48.3656 206.554 47.1264 219.621 48.7484 221.311C50.3704 223.002 56.0512 226.457 68.6429 226.049C81.2345 225.641 90.578 224.583 93.019 222.019C95.4601 219.456 92.6295 211.541 92.4244 210.475C92.2193 209.409 95.7198 181.387 95.7198 181.387C95.7198 181.387 109.299 196.383 117.425 194.257C125.552 192.13 121.75 158.777 121.75 158.777L122.172 149.155C122.172 149.155 124.819 142.104 124.821 141.03C124.822 139.957 122.198 132.26 122.198 132.26C122.198 132.26 120.576 130.756 119.551 134.395C118.977 136.349 118.566 138.353 118.323 140.382C118.323 140.382 115.883 142.3 116.1 145.085C116.22 146.765 116.557 148.42 117.104 150.003L111.58 168.873C111.58 168.873 105.499 161.59 105.095 160.306C104.691 159.022 104.898 154.316 99.8288 151.523C94.7599 148.73 84.3994 148.504 84.3994 148.504L55.7684 148.676C55.7684 148.676 42.3631 149.9 39.3531 152.672C36.3431 155.444 26.9084 190.729 26.9 196.073C26.8973 197.746 27.7162 202.928 28.8654 209.339L29.5606 213.378Z" fill="white" stroke="#263238" stroke-miterlimit="10"/>
<path d="M122.198 132.275C122.198 132.275 121.577 137.618 121.981 138.692C122.561 140.553 122.697 142.535 122.378 144.465" stroke="#263238" stroke-miterlimit="10"/>
<path d="M117.425 194.296C125.552 192.169 121.75 158.792 121.75 158.792L121.842 156.638C120.956 155.928 119.927 155.439 118.835 155.21C117.743 154.98 116.615 155.016 115.538 155.313L111.58 168.873C111.58 168.873 105.499 161.59 105.095 160.306C104.691 159.022 104.898 154.316 99.8288 151.523C94.7599 148.73 84.3994 148.504 84.3994 148.504L55.7684 148.676C55.7684 148.676 42.3631 149.9 39.3531 152.672C36.3431 155.444 26.9084 190.729 26.9 196.073C26.8949 199.247 29.868 215.074 32.3732 227.975C35.3214 227.962 38.2087 227.089 40.7146 225.452C41.0246 216.204 41.489 202.771 41.4908 201.658C41.4935 199.947 45.3654 189.219 45.3654 189.219C45.3654 189.219 48.3858 203.132 48.3831 204.843C48.3804 206.554 47.1412 219.621 48.7632 221.311C50.3851 223.002 56.0659 226.457 68.6576 226.049C81.2493 225.641 90.5927 224.583 93.0338 222.019C95.4748 219.456 92.6442 211.541 92.4391 210.475C92.2341 209.409 95.7346 181.387 95.7346 181.387C95.7346 181.387 109.299 196.422 117.425 194.296Z" fill="#A259FF" stroke="#263238" stroke-miterlimit="10"/>
<path d="M41.3814 177.482L45.3505 189.257L37.1622 174.457" stroke="#263238" stroke-miterlimit="10"/>
<path d="M39.1396 170.835L40.5435 174.999" stroke="#263238" stroke-miterlimit="10"/>
<path d="M67.2489 178.355C69.0367 182.605 71.6646 187.938 74.7977 191.373" stroke="#263238" stroke-miterlimit="10"/>
<path d="M64.7413 171.654C64.7413 171.654 65.2924 173.405 66.2779 175.95" stroke="#263238" stroke-miterlimit="10"/>
<path d="M69.1496 185.919C69.1496 185.919 73.5656 195.261 75.7782 197.077" stroke="#263238" stroke-miterlimit="10"/>
<path d="M102.68 174.654L104.366 173.008" stroke="#263238" stroke-miterlimit="10"/>
<path d="M99.9363 172.223L95.7198 181.426L101.149 176.145" stroke="#263238" stroke-miterlimit="10"/>
<path d="M119.128 177.442C118.888 175.629 111.58 168.834 111.58 168.834C111.58 168.834 119.137 171.997 121.104 174.855" stroke="#263238" stroke-miterlimit="10"/>
<path d="M87.287 120.451C87.287 120.451 87.6847 125.803 88.2963 126.675C88.9078 127.547 89.2961 134.16 88.2813 136.087C87.2666 138.015 86.6499 140.363 86.0581 141C85.4663 141.637 83.214 141.641 82.3647 141.64C81.5155 141.639 72.4181 141.196 72.4181 141.196L72.6463 127.716C72.6463 127.716 74.9072 117.654 87.287 120.451Z" fill="white" stroke="#263238" stroke-miterlimit="10"/>
<path d="M71.0718 105.458C71.0718 105.458 62.7374 108.222 60.9012 115.897C59.065 123.572 64.9367 132.371 64.9367 132.371C64.9367 132.371 66.5515 138.597 67.9674 139.867C69.3832 141.137 75.0715 139.878 76.9036 139.453C78.7357 139.028 82.8304 127.483 82.8304 127.483C82.8304 127.483 82.826 130.26 84.0445 130.262C85.263 130.264 85.0693 126.631 85.0704 125.986C85.0714 125.34 90.7648 120.861 90.777 113.167C90.7892 105.474 84.4806 102.057 78.5721 102.476C72.6636 102.894 71.0718 105.458 71.0718 105.458Z" fill="#263238" stroke="#263238" stroke-miterlimit="10"/>
<path d="M88.2624 148.043C88.2624 148.043 87.051 143.553 86.4391 142.914C85.8272 142.275 81.9764 139.695 75.6853 139.257C69.3941 138.819 60.0521 139.022 59.2391 139.449C58.4261 139.875 58.2135 143.507 58.2135 143.507C58.2135 143.507 55.5731 146.07 54.9578 147.571C54.3425 149.071 53.7359 149.7 59.3775 154.633C65.019 159.566 68.1028 161.492 73.9908 160C79.8788 158.508 88.4225 149.545 88.4225 149.545L88.2624 148.043Z" fill="#A259FF" stroke="#263238" stroke-miterlimit="10"/>
<path d="M73.7318 151.054C77.731 149.621 81.5796 147.758 85.2165 145.495" stroke="#263238" stroke-miterlimit="10"/>
<path d="M58.2122 144.363C58.2122 144.363 61.8924 152.07 68.354 152.08C69.2348 152.07 70.1127 151.973 70.9761 151.789" stroke="#263238" stroke-miterlimit="10"/>
</svg>
