<svg width="51" height="58" viewBox="0 0 51 58" fill="none" xmlns="http://www.w3.org/2000/svg">
<path d="M49.625 10.25H45.875C45.6264 10.2501 45.388 10.3489 45.2122 10.5247L42.125 13.6119L40.25 11.7369V1.8125C40.25 1.56386 40.1512 1.3254 39.9754 1.14959C39.7996 0.973772 39.5611 0.875 39.3125 0.875H35.5625C35.3139 0.875053 35.0755 0.97386 34.8997 1.14969L31.8125 4.23687L28.7253 1.14969C28.5495 0.97386 28.3111 0.875053 28.0625 0.875H24.3125C24.0639 0.875053 23.8255 0.97386 23.6497 1.14969L20.5625 4.23687L17.4753 1.14969C17.2995 0.97386 17.0611 0.875053 16.8125 0.875H13.0625C12.8139 0.875053 12.5755 0.97386 12.3997 1.14969L9.3125 4.23687L6.22531 1.14969C6.04954 0.97386 5.81112 0.875053 5.5625 0.875H1.8125C1.56386 0.875 1.3254 0.973772 1.14959 1.14959C0.973772 1.3254 0.875 1.56386 0.875 1.8125V46.8125C0.875 47.0611 0.973772 47.2996 1.14959 47.4754C1.3254 47.6512 1.56386 47.75 1.8125 47.75H5.5625C5.81112 47.7499 6.04954 47.6511 6.22531 47.4753L9.3125 44.3881L11.1875 46.2631V56.1875C11.1875 56.4361 11.2863 56.6746 11.4621 56.8504C11.6379 57.0262 11.8764 57.125 12.125 57.125H15.875C16.1236 57.1249 16.362 57.0261 16.5378 56.8503L19.625 53.7631L22.7122 56.8503C22.888 57.0261 23.1264 57.1249 23.375 57.125H27.125C27.3736 57.1249 27.612 57.0261 27.7878 56.8503L30.875 53.7631L33.9622 56.8503C34.138 57.0261 34.3764 57.1249 34.625 57.125H38.375C38.6236 57.1249 38.862 57.0261 39.0378 56.8503L42.125 53.7631L45.2122 56.8503C45.388 57.0261 45.6264 57.1249 45.875 57.125H49.625C49.8736 57.125 50.1121 57.0262 50.2879 56.8504C50.4637 56.6746 50.5625 56.4361 50.5625 56.1875V11.1875C50.5625 10.9389 50.4637 10.7004 50.2879 10.5246C50.1121 10.3488 49.8736 10.25 49.625 10.25ZM8.64969 42.3997L5.17437 45.875H2.75V2.75H5.17437L8.64969 6.22531C8.82549 6.40107 9.06391 6.4998 9.3125 6.4998C9.56109 6.4998 9.79951 6.40107 9.97531 6.22531L13.4506 2.75H16.4244L19.8997 6.22531C20.0755 6.40107 20.3139 6.4998 20.5625 6.4998C20.8111 6.4998 21.0495 6.40107 21.2253 6.22531L24.7006 2.75H27.6744L31.1497 6.22531C31.3255 6.40107 31.5639 6.4998 31.8125 6.4998C32.0611 6.4998 32.2995 6.40107 32.4753 6.22531L35.9506 2.75H38.375V45.875H35.9506L32.4753 42.3997C32.2995 42.2239 32.0611 42.1252 31.8125 42.1252C31.5639 42.1252 31.3255 42.2239 31.1497 42.3997L27.6744 45.875H24.7006L21.2253 42.3997C21.0495 42.2239 20.8111 42.1252 20.5625 42.1252C20.3139 42.1252 20.0755 42.2239 19.8997 42.3997L16.4244 45.875H13.4506L9.97531 42.3997C9.79951 42.2239 9.56109 42.1252 9.3125 42.1252C9.06391 42.1252 8.82549 42.2239 8.64969 42.3997ZM48.6875 55.25H46.2631L42.7878 51.7747C42.612 51.5989 42.3736 51.5002 42.125 51.5002C41.8764 51.5002 41.638 51.5989 41.4622 51.7747L37.9869 55.25H35.0131L31.5378 51.7747C31.362 51.5989 31.1236 51.5002 30.875 51.5002C30.6264 51.5002 30.388 51.5989 30.2122 51.7747L26.7369 55.25H23.7631L20.2878 51.7747C20.112 51.5989 19.8736 51.5002 19.625 51.5002C19.3764 51.5002 19.138 51.5989 18.9622 51.7747L15.4869 55.25H13.0625V47.75H16.8125C17.0611 47.7499 17.2995 47.6511 17.4753 47.4753L20.5625 44.3881L23.6497 47.4753C23.8255 47.6511 24.0639 47.7499 24.3125 47.75H28.0625C28.3111 47.7499 28.5495 47.6511 28.7253 47.4753L31.8125 44.3881L34.8997 47.4753C35.0755 47.6511 35.3139 47.7499 35.5625 47.75H39.3125C39.5611 47.75 39.7996 47.6512 39.9754 47.4754C40.1512 47.2996 40.25 47.0611 40.25 46.8125V14.3881L41.4622 15.6003C41.638 15.7761 41.8764 15.8748 42.125 15.8748C42.3736 15.8748 42.612 15.7761 42.7878 15.6003L46.2631 12.125H48.6875V55.25Z" fill="#7D4AC7"/>
</svg>
